<svg width="48" height="145" viewBox="0 0 48 145" fill="none" xmlns="http://www.w3.org/2000/svg">
<path d="M26.7919 81.1424L8.00781 70.1091L28.0184 57.592L46.8026 68.6257L26.7919 81.1424Z" fill="#DB8C6B" stroke="#59258A" stroke-miterlimit="10" stroke-linejoin="round"/>
<path d="M19.6198 85.8928L0.835938 74.8595L20.8463 62.3428L39.6303 73.3761L19.6198 85.8928Z" fill="#156500" stroke="#59258A" stroke-miterlimit="10" stroke-linejoin="round"/>
<path d="M46.8007 68.6255L26.79 81.1424L26.7102 81.4586L19.6208 85.8934L5.26562 142.945L12.4347 138.193L46.8007 68.6255Z" fill="#DB8C6B" stroke="#59258A" stroke-miterlimit="10" stroke-linejoin="round"/>
<path d="M41.1306 1.80273L33.9615 6.55409L0.835938 74.8602L20.8463 62.3434L20.9197 62.0302L28.0155 57.592L41.1306 1.80273Z" fill="#DB8C6B" stroke="#59258A" stroke-miterlimit="10" stroke-linejoin="round"/>
<path d="M0.835938 74.86L20.8463 62.3433L33.9615 6.55396L0.835938 74.86Z" fill="#FFD18C" stroke="#59258A" stroke-miterlimit="10" stroke-linejoin="round"/>
<path d="M19.6208 85.8934L39.6313 73.3765L5.26562 142.945L19.6208 85.8934Z" fill="#FFD18C" stroke="#59258A" stroke-miterlimit="10" stroke-linejoin="round"/>
<path d="M21.3984 62.3894L26.6933 65.9061L33.6603 60.8826L28.0143 57.592L21.3984 62.3894Z" fill="#59258A"/>
<path d="M13.0763 137.63L5.09375 143.875C7.0979 144.089 9.35029 144.21 11.7326 144.21C20.0726 144.21 26.8335 142.734 26.8335 140.913C26.8337 139.191 20.7864 137.779 13.0763 137.63Z" fill="#59258A"/>
</svg>
