<svg width="154" height="42" viewBox="0 0 154 42" fill="none" xmlns="http://www.w3.org/2000/svg">
<path d="M23.729 7.88914H23.0837V8.53453V10.4295L23.0429 10.3892C20.8694 8.2401 18.1005 7.17727 14.7897 7.17727C10.7584 7.17727 7.36376 8.74486 4.64524 11.8465L4.6448 11.847C1.96972 14.9054 0.645508 18.7005 0.645508 23.1873C0.645508 27.7848 1.94523 31.6219 4.58435 34.6457L4.58746 34.6492L4.59062 34.6528C7.27747 37.6416 10.7141 39.1379 14.8498 39.1379C18.34 39.1379 21.1097 38.0607 23.0837 35.8783V37.662V38.3074H23.729H32.3683H33.0137V37.662V8.53453V7.88914H32.3683H23.729ZM34.2427 15.5872V16.2325H34.8881H38.6223V27.8077C38.6223 29.9108 38.7411 31.5018 39.0019 32.5337L39.0036 32.5401C39.2723 33.5584 39.8233 34.5673 40.6237 35.567L40.627 35.5711L40.6303 35.5751C42.5779 37.9289 45.3782 39.0718 48.9269 39.0718C50.973 39.0718 53.5481 39.0209 56.1987 38.2838L56.6712 38.1524V37.662V30.8912V30.018L55.8364 30.2742C55.3008 30.4386 54.4468 30.6113 53.6059 30.7437C52.7593 30.877 51.9923 30.9589 51.6267 30.9589C50.6146 30.9589 49.9132 30.7356 49.4443 30.3691C48.9922 30.0158 48.6772 29.4678 48.5511 28.6416L48.4924 26.3756V16.2325H55.1064H55.7518V15.5872V8.52775V7.88236H55.1064H48.4924V1.29041V0.64502H47.847H39.2677H38.6223V1.29041V7.88236H34.8881H34.2427V8.52775V15.5872ZM56.7944 37.662V38.3074H57.4398H66.079H66.7244V37.662V23.4839C66.7244 22.1679 66.8232 21.188 67 20.5165C67.2136 19.8176 67.5686 19.166 68.0733 18.5598C69.1788 17.256 70.6516 16.5953 72.5587 16.5953C73.4565 16.5953 74.4226 16.7248 75.4578 16.9903L76.1245 17.1612L76.2523 16.4851L77.8122 8.23926L77.9258 7.63931L77.3333 7.49274C76.6815 7.33165 76.129 7.2249 75.6857 7.18076C75.3029 7.13893 74.8492 7.1188 74.3303 7.11796C73.3035 7.02367 72.2528 7.44685 71.3293 8.02789C70.3799 8.62462 69.4783 9.44233 68.7374 10.2571C67.9991 11.0695 67.3911 11.9112 67.0465 12.5752C66.8961 12.8656 66.7606 13.1866 66.7244 13.4829V8.53453V7.88914H66.079H57.4398H56.7944V8.53453V37.662ZM66.7244 13.7801C66.7257 13.7889 66.727 13.7978 66.7283 13.8068C66.727 13.8085 66.7257 13.8101 66.7244 13.8119V13.7801ZM107.172 37.3879L106.374 38.4264H107.683H118.063H118.402L118.594 38.1462L123.149 31.5098C123.15 31.5084 123.151 31.5071 123.152 31.5057C123.719 30.7037 124.143 30.0163 124.407 29.4522L124.411 29.4441L124.414 29.4359C124.44 29.3767 124.466 29.3157 124.49 29.253C124.803 30.0309 125.203 30.7793 125.687 31.4977L125.69 31.5031L125.694 31.5085L130.374 38.1526L130.566 38.4264H130.901H141.341H142.658L141.85 37.3853L130.278 22.4749L140.651 9.04813L141.455 8.00821H140.141H129.702H129.363L129.17 8.28741L125.452 13.6827C125.452 13.6833 125.452 13.684 125.451 13.6846C125.054 14.2542 124.726 14.8555 124.467 15.4878C124.211 14.8599 123.896 14.2622 123.52 13.6955L123.517 13.6905L123.514 13.6858L119.794 8.28741L119.601 8.00821H119.262H108.763H107.449L108.253 9.04813L118.628 22.4769L107.172 37.3879ZM143.277 36.7472L143.286 36.7566L143.296 36.7656C144.418 37.8306 145.778 38.3667 147.34 38.3667C148.903 38.3667 150.248 37.8299 151.334 36.7565C152.458 35.6448 153.025 34.2726 153.025 32.6789C153.025 31.0932 152.483 29.7382 151.394 28.6606C150.304 27.5835 148.937 27.0504 147.34 27.0504C145.743 27.0504 144.376 27.5835 143.286 28.6606C142.197 29.7382 141.655 31.0932 141.655 32.6789C141.655 34.2643 142.196 35.6336 143.277 36.7472ZM12.1536 17.7417C13.4359 16.2928 14.9821 15.5868 16.8296 15.5868C18.7659 15.5868 20.373 16.2998 21.6919 17.7487C23.0134 19.2006 23.6836 20.9988 23.6836 23.1873C23.6836 25.4714 23.0434 27.2881 21.8051 28.6927C20.5745 30.0884 18.9947 30.7877 17.0096 30.7877C14.9804 30.7877 13.3822 30.0855 12.1542 28.6927C10.9158 27.2881 10.2756 25.4714 10.2756 23.1873C10.2756 20.9461 10.9139 19.1482 12.1536 17.7417ZM82.1441 11.6882C79.0068 14.7077 77.4469 18.5787 77.4469 23.2466C77.4469 27.9144 79.0068 31.7855 82.1441 34.8049C85.2787 37.8214 89.2647 39.3159 94.0509 39.3159C98.7984 39.3159 102.764 37.8203 105.897 34.8049C109.035 31.7855 110.595 27.9144 110.595 23.2466C110.595 18.5787 109.035 14.7077 105.897 11.6882C102.764 8.6729 98.7984 7.17727 94.0509 7.17727C89.2647 7.17727 85.2787 8.6718 82.1441 11.6882ZM88.9368 17.7612C90.2889 16.3523 91.9772 15.6461 94.0509 15.6461C96.0748 15.6461 97.7431 16.3653 99.0991 17.8145C100.458 19.2672 101.144 21.0631 101.144 23.2466C101.144 25.4729 100.456 27.2642 99.1043 28.6727C97.7503 30.0842 96.0806 30.7877 94.0509 30.7877C91.9772 30.7877 90.2889 30.0816 88.9368 28.6727C87.5854 27.2642 86.8967 25.4729 86.8967 23.2466C86.8967 20.9775 87.5873 19.1676 88.9368 17.7612Z" fill="white" stroke="white" stroke-width="1.29078"/>
</svg>
