<svg width="121" height="34" viewBox="0 0 121 34" fill="none" xmlns="http://www.w3.org/2000/svg">
<g clip-path="url(#clip0_151_168)">
<path d="M18.6449 6.69864H18.1378V7.20573V8.69461L18.1058 8.66297C16.3981 6.9744 14.2225 6.13932 11.6211 6.13932C8.45369 6.13932 5.78644 7.371 3.65046 9.80798L3.65011 9.80838C1.54826 12.2114 0.507812 15.1933 0.507812 18.7186C0.507812 22.331 1.52902 25.3458 3.60262 27.7216L3.60506 27.7244L3.60755 27.7272C5.71864 30.0756 8.41886 31.2512 11.6683 31.2512C14.4107 31.2512 16.5868 30.4049 18.1378 28.6902V30.0916V30.5987H18.6449H25.4329H25.94V30.0916V7.20573V6.69864H25.4329H18.6449ZM26.9056 12.7471V13.2542H27.4127H30.3467V22.3489C30.3467 24.0014 30.44 25.2514 30.645 26.0622L30.6463 26.0673C30.8574 26.8673 31.2903 27.6601 31.9193 28.4455L31.9218 28.4487L31.9245 28.4519C33.4547 30.3013 35.6549 31.1993 38.4432 31.1993C40.0508 31.1993 42.0741 31.1594 44.1567 30.5802L44.528 30.4769V30.0916V24.7717V24.0856L43.8721 24.2869C43.4512 24.416 42.7803 24.5517 42.1195 24.6558C41.4543 24.7605 40.8517 24.8249 40.5644 24.8249C39.7692 24.8249 39.2182 24.6494 38.8497 24.3615C38.4945 24.0839 38.247 23.6533 38.1479 23.0041L38.1018 21.2237V13.2542H43.2985H43.8056V12.7471V7.20041V6.69332H43.2985H38.1018V1.51393V1.00684H37.5947H30.8538H30.3467V1.51393V6.69332H27.4127H26.9056V7.20041V12.7471ZM44.6248 30.0916V30.5987H45.1319H51.9199H52.427V30.0916V18.9517C52.427 17.9177 52.5045 17.1478 52.6435 16.6201C52.8113 16.071 53.0902 15.5591 53.4868 15.0827C54.3554 14.0583 55.5126 13.5392 57.0111 13.5392C57.7164 13.5392 58.4755 13.6409 59.2889 13.8496L59.8127 13.9838L59.9132 13.4526L61.1388 6.97374L61.228 6.50235L60.7625 6.38719C60.2504 6.26062 59.8163 6.17674 59.4679 6.14206C59.1672 6.1092 58.8107 6.09338 58.403 6.09272C57.5962 6.01863 56.7707 6.35113 56.0451 6.80767C55.2991 7.27652 54.5907 7.91901 54.0086 8.55921C53.4285 9.19749 52.9508 9.85884 52.68 10.3805C52.5618 10.6087 52.4553 10.8609 52.427 11.0938V7.20573V6.69864H51.9199H45.1319H44.6248V7.20573V30.0916ZM52.427 11.3273C52.428 11.3342 52.429 11.3412 52.43 11.3482C52.429 11.3495 52.428 11.3509 52.427 11.3522V11.3273ZM84.2069 29.8762L83.5802 30.6922H84.6091H92.7641H93.0308L93.1819 30.472L96.7605 25.2577C96.761 25.2566 96.762 25.2556 96.763 25.2545C97.2088 24.6244 97.5419 24.0843 97.7488 23.6411L97.7519 23.6347L97.7544 23.6282C97.7747 23.5817 97.795 23.5338 97.8142 23.4845C98.0602 24.0957 98.3741 24.6837 98.7544 25.2482L98.7574 25.2525L98.7605 25.2567L102.437 30.4771L102.589 30.6922H102.852H111.054H112.089L111.455 29.8742L102.362 18.1589L110.512 7.60928L111.144 6.7922H110.111H101.909H101.643L101.491 7.01157L98.5703 11.2508C98.5703 11.2512 98.5698 11.2517 98.5693 11.2522C98.2574 11.6997 97.9998 12.1722 97.796 12.669C97.5952 12.1756 97.3472 11.706 97.0521 11.2607L97.0495 11.2569L97.047 11.2531L94.1241 7.01157L93.973 6.7922H93.7068H85.4574H84.425L85.0563 7.60928L93.2083 18.1604L84.2069 29.8762ZM112.576 29.3728L112.583 29.3802L112.59 29.3873C113.472 30.2241 114.54 30.6453 115.768 30.6453C116.996 30.6453 118.053 30.2236 118.906 29.3801C119.789 28.5067 120.235 27.4285 120.235 26.1763C120.235 24.9304 119.809 23.8657 118.953 23.0191C118.097 22.1728 117.023 21.7539 115.768 21.7539C114.513 21.7539 113.439 22.1728 112.583 23.0191C111.727 23.8657 111.301 24.9304 111.301 26.1763C111.301 27.422 111.726 28.4979 112.576 29.3728ZM9.54987 14.44C10.5574 13.3015 11.7723 12.7468 13.2239 12.7468C14.7452 12.7468 16.008 13.307 17.0442 14.4454C18.0826 15.5862 18.6092 16.9991 18.6092 18.7186C18.6092 20.5133 18.1062 21.9407 17.1332 23.0443C16.1663 24.1409 14.9251 24.6904 13.3653 24.6904C11.7709 24.6904 10.5152 24.1387 9.55033 23.0443C8.57732 21.9407 8.07429 20.5133 8.07429 18.7186C8.07429 16.9577 8.5758 15.545 9.54987 14.44ZM64.5424 9.68364C62.0774 12.0561 60.8518 15.0976 60.8518 18.7652C60.8518 22.4328 62.0774 25.4743 64.5424 27.8468C67.0053 30.2168 70.1371 31.3911 73.8977 31.3911C77.6279 31.3911 80.744 30.216 83.2054 27.8468C85.6709 25.4743 86.8965 22.4328 86.8965 18.7652C86.8965 15.0976 85.6709 12.0561 83.2054 9.68364C80.744 7.31446 77.6279 6.13932 73.8977 6.13932C70.1371 6.13932 67.0053 7.31359 64.5424 9.68364ZM69.8795 14.4552C70.9419 13.3482 72.2685 12.7934 73.8977 12.7934C75.488 12.7934 76.7988 13.3585 77.8642 14.4972C78.9316 15.6385 79.4712 17.0496 79.4712 18.7652C79.4712 20.5145 78.9301 21.9219 77.8683 23.0286C76.8044 24.1376 75.4925 24.6904 73.8977 24.6904C72.2685 24.6904 70.9419 24.1356 69.8795 23.0286C68.8177 21.9219 68.2766 20.5145 68.2766 18.7652C68.2766 16.9823 68.8192 15.5603 69.8795 14.4552Z" fill="white" stroke="white" stroke-width="1.01418"/>
</g>
<defs>
<clipPath id="clip0_151_168">
<rect width="121" height="33" fill="white" transform="translate(0 0.5)"/>
</clipPath>
</defs>
</svg>
