<svg width="148" height="149" viewBox="0 0 148 149" fill="none" xmlns="http://www.w3.org/2000/svg">
<g clip-path="url(#clip0_151_306)">
<mask id="mask0_151_306" style="mask-type:luminance" maskUnits="userSpaceOnUse" x="0" y="0" width="148" height="149">
<path d="M147.742 0.892822H0.0869141V148.548H147.742V0.892822Z" fill="white"/>
</mask>
<g mask="url(#mask0_151_306)">
<mask id="mask1_151_306" style="mask-type:luminance" maskUnits="userSpaceOnUse" x="0" y="47" width="148" height="81">
<path d="M147.746 47.2988H0.0908203V127.497H147.746V47.2988Z" fill="white"/>
</mask>
<g mask="url(#mask1_151_306)">
<path d="M103.64 87.0288C103.64 92.7768 98.9998 97.4385 93.2517 97.4491C90.1299 97.4491 87.1662 96.0569 85.1834 93.6417C84.2342 92.4393 82.7893 91.7327 81.2494 91.7116C78.4967 91.7116 76.2608 93.9475 76.2608 96.7002V122.772H50.1785C47.4258 122.772 45.2004 120.547 45.1898 117.794C45.1898 117.024 45.3691 116.275 45.7066 115.6C46.0441 114.925 46.5293 114.324 47.1199 113.849C51.5601 110.211 52.214 103.661 48.5754 99.2209C44.9367 94.7807 38.3871 94.1268 33.9469 97.7655C29.5067 101.404 28.8528 107.954 32.4915 112.394C32.9239 112.932 33.4196 113.417 33.9469 113.849C35.1493 114.809 35.8559 116.254 35.877 117.794C35.877 120.536 33.6516 122.772 30.9094 122.772C30.9094 122.772 30.8989 122.772 30.8884 122.772H4.77441V51.3067H30.8673C33.62 51.3067 35.8454 53.5321 35.8559 56.2848C35.8559 57.0442 35.6766 57.793 35.3286 58.468C34.9911 59.143 34.5059 59.7441 33.9153 60.2188C29.4645 63.8574 28.8106 70.407 32.4493 74.8577C36.0879 79.3085 42.6375 79.9624 47.0883 76.3238C51.539 72.6851 52.1929 66.1355 48.5543 61.6848C48.1113 61.1469 47.6262 60.6617 47.0883 60.2188C45.8859 59.259 45.1793 57.8141 45.1582 56.2742C45.1582 53.5321 47.3836 51.2961 50.1258 51.2961C50.1258 51.2961 50.1363 51.2961 50.1469 51.2961H76.2608V77.389C76.2608 80.1417 78.4967 82.3776 81.2494 82.3776C82.0088 82.3776 82.7576 82.1983 83.4326 81.8503C84.1076 81.5023 84.7088 81.0276 85.1834 80.437C88.8221 75.9863 95.3822 75.3429 99.8224 78.9816C102.238 80.9644 103.64 83.9175 103.63 87.0499V87.0288H103.64Z" fill="#59258A"/>
<path d="M120.336 87.0287C120.336 92.7768 124.987 97.4385 130.735 97.449C133.857 97.449 136.81 96.0568 138.792 93.6416C139.742 92.4393 141.187 91.7326 142.726 91.7115C145.479 91.7115 147.715 93.9475 147.715 96.7002V122.772H76.2604V96.6791C76.2393 93.9475 78.433 91.7115 81.1646 91.6904C81.9451 91.6904 82.715 91.8592 83.4111 92.2072C84.0861 92.5553 84.6873 93.0299 85.1619 93.6205C88.8005 98.0607 95.3501 98.7146 99.7903 95.076C104.231 91.4373 104.884 84.8877 101.246 80.4475C97.6071 76.0073 91.0576 75.3534 86.6173 78.9921C86.09 79.4245 85.5943 79.9096 85.1619 80.4475C84.2021 81.6499 82.7572 82.3565 81.2174 82.3776C78.4646 82.3776 76.2393 80.1417 76.2393 77.3889V51.3066H147.726V77.3889C147.726 80.1417 145.5 82.3776 142.748 82.3776C142.748 82.3776 142.748 82.3776 142.737 82.3776C141.978 82.3776 141.229 82.1983 140.554 81.8503C139.879 81.5128 139.278 81.0276 138.803 80.437C135.154 75.9862 128.594 75.3429 124.153 78.9921C121.738 80.9749 120.346 83.928 120.346 87.0498L120.325 87.0287H120.336Z" fill="#9947E7"/>
<path d="M136.052 78.918L140.576 81.8501C140.576 81.8501 142.253 77.4731 142.285 77.2727C142.317 77.0723 141.283 74.6571 140.756 74.8575C140.228 75.0579 136.052 78.918 136.052 78.918Z" fill="#9947E7"/>
<path d="M141.396 88.4739L146.3 93.2199L147.439 95.8777L144.127 97.1117L142.144 94.5172L140.024 91.7328V88.4739H141.396Z" fill="#9947E7"/>
<path d="M0.0908203 119.945L4.77361 122.772L16.7232 67.5172L34.7582 53.1841L30.2758 48.5962L4.77361 57.6454L0.0908203 119.945Z" fill="#59258A"/>
<path d="M41.4111 117.657L47.2646 121.833L55.0798 116.244L45.4717 111.223L41.4111 117.657Z" fill="#59258A"/>
<path d="M144.223 47.2988L147.746 51.3066L145.626 55.1457L139.72 54.7027L140.954 51.3066L144.223 47.2988Z" fill="#9947E7"/>
<path d="M99.5048 83.6538C99.5048 89.4019 94.8642 94.0636 89.1162 94.0741C85.9943 94.0741 83.0306 92.6819 81.0478 90.2667C80.0986 89.0644 78.6537 88.3577 77.1139 88.3366C74.3612 88.3366 72.1252 90.5726 72.1252 93.3253V119.397H46.0429C43.2902 119.397 41.0648 117.172 41.0543 114.419C41.0543 113.649 41.2336 112.9 41.5711 112.225C41.9086 111.55 42.3937 110.949 42.9843 110.474C47.4246 106.836 48.0785 100.286 44.4398 95.846C40.8011 91.4058 34.2516 90.7519 29.8114 94.3905C25.3711 98.0292 24.7172 104.579 28.3559 109.019C28.7883 109.557 29.284 110.042 29.8114 110.474C31.0137 111.434 31.7203 112.879 31.7414 114.419C31.7414 117.161 29.516 119.397 26.7739 119.397C26.7739 119.397 26.7633 119.397 26.7528 119.397H0.649414V47.9212H26.7317C29.4844 47.9212 31.7098 50.1466 31.7203 52.8993C31.7203 53.6587 31.541 54.4075 31.193 55.0825C30.8555 55.7575 30.3703 56.3587 29.7797 56.8333C25.329 60.4719 24.6751 67.0215 28.3137 71.4722C31.9524 75.923 38.5019 76.5769 42.9527 72.9383C47.4035 69.2996 48.0574 62.75 44.4187 58.2993C43.9757 57.7614 43.4906 57.2762 42.9527 56.8333C41.7504 55.8735 41.0437 54.4286 41.0226 52.8887C41.0226 50.1466 43.248 47.9106 45.9902 47.9106C45.9902 47.9106 46.0007 47.9106 46.0113 47.9106H72.1252V74.0035C72.1252 76.7562 74.3612 78.9921 77.1139 78.9921C77.8732 78.9921 78.6221 78.8128 79.2971 78.4648C79.9721 78.1168 80.5732 77.6421 81.0478 77.0515C84.6865 72.6008 91.2466 71.9574 95.6868 75.5961C98.1021 77.5789 99.5048 80.532 99.4942 83.6644V83.6433L99.5048 83.6538Z" fill="#9948E8" stroke="white" stroke-width="1.05468" stroke-miterlimit="10"/>
<path d="M116.199 83.654C116.199 89.402 120.85 94.0637 126.598 94.0742C129.72 94.0742 132.673 92.6821 134.656 90.2668C135.605 89.0645 137.05 88.3579 138.59 88.3368C141.342 88.3368 143.578 90.5727 143.578 93.3254V119.397H72.1236V93.3043C72.1025 90.5727 74.2963 88.3368 77.0279 88.3157C77.8084 88.3157 78.5783 88.4844 79.2744 88.8325C79.9494 89.1805 80.5505 89.6551 81.0252 90.2458C84.6638 94.686 91.2134 95.3399 95.6536 91.7012C100.094 88.0626 100.748 81.513 97.1091 77.0728C93.4704 72.6326 86.9208 71.9786 82.4806 75.6173C81.9533 76.0497 81.4576 76.5349 81.0252 77.0728C80.0654 78.2751 78.6205 78.9817 77.0806 79.0028C74.3279 79.0028 72.1025 76.7669 72.1025 74.0142V47.9319H143.589V74.0036C143.589 76.7564 141.364 78.9923 138.611 78.9923C138.611 78.9923 138.611 78.9923 138.6 78.9923C137.841 78.9923 137.092 78.813 136.417 78.4649C135.742 78.1274 135.141 77.6423 134.666 77.0517C131.017 72.6009 124.457 71.9576 120.017 75.6068C117.602 77.5896 116.209 80.5427 116.209 83.6645L116.188 83.6434L116.199 83.654Z" fill="#C77FFF" stroke="white" stroke-width="1.05468" stroke-miterlimit="10"/>
</g>
<path d="M108.026 8.3163L21.333 41.1106L22.9536 44.9223L110.015 13.4864C111.996 12.7906 109.97 7.59804 108.026 8.3163Z" fill="url(#paint0_linear_151_306)"/>
<path d="M109.617 13.4865C111.155 13.4865 112.401 12.24 112.401 10.7023C112.401 9.16471 111.155 7.91821 109.617 7.91821C108.08 7.91821 106.833 9.16471 106.833 10.7023C106.833 12.24 108.08 13.4865 109.617 13.4865Z" fill="#FF6075"/>
</g>
</g>
<defs>
<linearGradient id="paint0_linear_151_306" x1="92.0691" y1="-3.61761" x2="39.5032" y2="58.8481" gradientUnits="userSpaceOnUse">
<stop stop-color="#FF576D"/>
<stop offset="0.572917" stop-color="#FF576D" stop-opacity="0"/>
</linearGradient>
<clipPath id="clip0_151_306">
<rect width="147.656" height="147.656" fill="white" transform="translate(0.0830078 0.893066)"/>
</clipPath>
</defs>
</svg>
