<svg width="156" height="149" viewBox="0 0 156 149" fill="none" xmlns="http://www.w3.org/2000/svg">
<g clip-path="url(#clip0_151_279)">
<path d="M146.528 83.4567C145.531 82.9256 144.545 82.3612 143.595 81.7375C142.993 81.5436 142.42 81.3309 141.928 81.0834C141.479 80.9604 141.028 80.8286 140.586 80.6753C139.063 81.383 133.888 83.8213 133.879 83.8112L122.158 89.2771C119.556 90.4955 116.955 91.7126 114.351 92.9513L112.385 93.8933C112.05 94.0539 111.732 94.2132 111.41 94.3724L111.288 94.4317L111.228 94.4621L111.198 94.4766C111.278 94.4389 111.202 94.4751 111.212 94.4693L110.969 94.5822L110.483 94.8094L106.583 96.6198C101.381 99.022 96.1599 101.376 90.9178 103.682C88.2961 104.834 85.6702 105.974 83.0388 107.102L79.0876 108.789L78.779 108.921L78.7487 108.933C78.7294 108.942 78.8121 108.909 78.7625 108.929L78.6357 108.979L78.1287 109.178L77.1175 109.584C76.4451 109.858 75.777 110.138 75.113 110.419L73.1291 111.27L72.1427 111.694L72.0186 111.746L71.9884 111.76C71.9884 111.76 71.947 111.777 71.9788 111.764L71.9168 111.789L71.6688 111.892L71.1714 112.094L67.1954 113.708C64.542 114.775 61.883 115.826 59.2172 116.855C53.8869 118.916 48.5263 120.887 43.1286 122.736L41.1033 123.424L40.0866 123.763L39.5782 123.934L39.5149 123.956C39.5093 123.957 39.5066 123.958 39.5024 123.958L39.3702 123.995L39.1043 124.07C38.3962 124.273 37.7018 124.501 37.0198 124.728L36.765 124.814L36.7016 124.836L36.6699 124.846L36.5569 124.878L36.0403 125.022L35.0084 125.309C32.2572 126.073 29.5156 126.84 26.7616 127.473C25.3838 127.787 24.0035 128.076 22.6189 128.29C22.273 128.347 21.9258 128.39 21.5801 128.441L21.3197 128.477L21.0593 128.506L20.5385 128.563C20.1914 128.607 19.8442 128.627 19.497 128.656C19.3248 128.668 19.1484 128.688 18.9776 128.693L18.4637 128.713C18.2915 128.718 18.1234 128.73 17.9471 128.732H17.4139L16.896 128.73L16.3738 128.714C15.6809 128.685 14.9947 128.635 14.339 128.516C13.6846 128.399 13.0535 128.213 12.5218 127.907C11.9968 127.61 11.5932 127.184 11.3356 126.644C11.3149 126.572 11.2956 126.519 11.279 126.47C11.2556 126.406 11.2378 126.349 11.2336 126.334L11.2226 126.293C11.2199 126.284 11.2185 126.278 11.2157 126.268C11.1758 126.154 11.144 126.049 11.122 125.948C11.0999 125.846 11.0876 125.746 11.0835 125.639L11.0821 125.614C11.0821 125.606 11.0808 125.598 11.0808 125.59C11.0118 125.012 11.089 124.403 11.2433 123.785C11.2832 123.63 11.3246 123.475 11.3728 123.32C11.4196 123.163 11.4678 123.019 11.5243 122.852L11.5339 122.821C11.5367 122.813 11.5601 122.756 11.5601 122.756L11.6056 122.642C11.6359 122.565 11.6648 122.488 11.698 122.413C11.7599 122.261 11.8246 122.111 11.8921 121.961C12.158 121.36 12.4639 120.772 12.7876 120.196C13.1155 119.621 13.4641 119.056 13.8305 118.501C13.9215 118.363 14.0138 118.225 14.1075 118.088L14.3886 117.68L14.9796 116.87C15.1739 116.598 15.3791 116.334 15.5802 116.067C15.7827 115.803 15.9825 115.534 16.1906 115.273L16.8105 114.486L17.4443 113.71C17.6536 113.45 17.87 113.195 18.0849 112.94C18.3012 112.686 18.5133 112.429 18.7337 112.177C19.1719 111.672 19.6086 111.167 20.0563 110.673C20.4985 110.172 20.9546 109.685 21.4051 109.193L22.0898 108.463C22.3185 108.22 22.5473 107.977 22.78 107.738L23.4744 107.017L24.1757 106.304C24.6413 105.826 25.1179 105.359 25.5892 104.887C26.0658 104.421 26.5384 103.951 27.0192 103.489L27.7383 102.795L28.4616 102.106C28.9424 101.646 29.4315 101.191 29.9164 100.733C29.9812 100.672 29.9882 100.569 29.9316 100.5C29.8751 100.43 29.7746 100.421 29.7085 100.481C29.2111 100.925 28.7124 101.363 28.2178 101.812L27.4738 102.482L26.7354 103.156C26.2408 103.605 25.7544 104.062 25.2654 104.515C24.7804 104.974 24.2914 105.428 23.8106 105.894L23.0873 106.591L22.3708 107.293C22.1312 107.526 21.8942 107.764 21.6586 108.001L20.9505 108.715C20.4848 109.197 20.0136 109.673 19.5549 110.163C19.0905 110.648 18.6373 111.143 18.1827 111.638C17.9554 111.885 17.7336 112.139 17.509 112.39C17.2844 112.64 17.0599 112.892 16.8422 113.148L16.1823 113.913L15.5334 114.69C15.3157 114.947 15.1063 115.213 14.8942 115.476C14.6833 115.739 14.4684 116.001 14.2631 116.271L13.6432 117.073L13.3401 117.49C13.2396 117.629 13.1403 117.77 13.0426 117.909C12.6499 118.467 12.2738 119.041 11.9169 119.632C11.5615 120.224 11.2253 120.831 10.9236 121.464C10.8479 121.622 10.7749 121.78 10.7032 121.942C10.666 122.021 10.633 122.102 10.5985 122.183L10.5475 122.305L10.5213 122.366L10.5145 122.382L10.5007 122.418L10.4897 122.448C10.4318 122.603 10.3684 122.779 10.3133 122.947C10.2568 123.117 10.2045 123.289 10.1549 123.464C10.0585 123.816 9.97579 124.179 9.92895 124.556C9.88073 124.934 9.8697 125.326 9.90276 125.72L9.90002 125.671C9.90279 125.843 9.9193 126.023 9.95237 126.199C9.98267 126.361 10.024 126.513 10.0681 126.653C10.0929 126.756 10.1163 126.827 10.1356 126.889C10.1563 126.955 10.1728 127.011 10.1756 127.026C10.1797 127.054 10.188 127.084 10.199 127.112L10.2155 127.15C10.3905 127.548 10.6219 127.931 10.9126 128.254C11.0545 128.419 11.2144 128.565 11.3755 128.704C11.5408 128.837 11.7117 128.963 11.888 129.07C12.5961 129.506 13.3539 129.739 14.095 129.895C14.839 130.051 15.5748 130.125 16.3022 130.177C16.484 130.191 16.6658 130.2 16.8463 130.211L17.3946 130.227L17.9279 130.243C18.1069 130.249 18.2956 130.242 18.4789 130.241L19.0327 130.235C19.2187 130.235 19.3964 130.221 19.5797 130.214C19.942 130.195 20.3071 130.184 20.668 130.149L21.2109 130.105L21.4822 130.083L21.7522 130.052C22.1119 130.011 22.4728 129.976 22.831 129.928C24.268 129.748 25.6883 129.492 27.1004 129.214C29.9248 128.651 32.7063 127.958 35.4782 127.274L36.517 127.017L37.0364 126.888L37.1659 126.856C37.1328 126.866 37.2472 126.835 37.2472 126.832L37.2789 126.823L37.3422 126.804L37.5971 126.726C38.2776 126.519 38.9473 126.322 39.6168 126.151L39.8675 126.088L39.9929 126.057L40.0246 126.05C40.0218 126.05 40.1499 126.015 40.1114 126.026L40.1761 126.007L40.6886 125.852L41.715 125.54L43.7705 124.909C49.2455 123.207 54.6846 121.383 60.0934 119.47C62.7977 118.513 65.4953 117.536 68.1859 116.542L72.217 115.04L72.7213 114.85L72.9734 114.756L73.0368 114.733L73.1208 114.7L73.2462 114.651L74.2478 114.254L76.2399 113.467C76.9025 113.208 77.5638 112.954 78.2251 112.706L79.2184 112.34L79.7158 112.161L79.8398 112.115L80.0092 112.05L80.26 111.952L84.265 110.377C86.9335 109.323 89.598 108.256 92.2597 107.176C97.5817 105.017 102.884 102.806 108.168 100.547L112.127 98.8455L112.621 98.6313L112.87 98.5242L113.159 98.391C113.484 98.2405 113.813 98.0886 114.131 97.9483L116.071 97.0857C118.687 95.9323 121.318 94.792 123.947 93.6532L146.993 83.6955C146.836 83.6187 146.682 83.5377 146.528 83.4567Z" fill="white"/>
<mask id="mask0_151_279" style="mask-type:luminance" maskUnits="userSpaceOnUse" x="42" y="0" width="72" height="149">
<path d="M113.129 0.519287H42.5791V148.175H113.129V0.519287Z" fill="white"/>
</mask>
<g mask="url(#mask0_151_279)">
<path d="M86.0238 100.132C86.0238 100.132 95.1811 111.712 94.9554 120.406C94.7297 129.1 91.3922 131.772 91.3922 131.772L91.8674 126.155C91.8674 126.155 89.9077 136.56 81.2492 142.782L78.1256 137.057C78.1256 137.057 77.0686 143.4 78.1256 146.915C78.1256 146.915 67.0443 140.526 66.0585 131.736L64.8708 135.443C64.8708 135.443 59.93 127.129 60.8802 119.195C61.8303 111.261 69.3484 101.106 69.3484 101.106L86.0238 100.132Z" fill="#FF576D"/>
<path d="M86.8884 105.144C88.6344 108.719 89.9052 112.508 90.6653 116.416C91.1404 119.432 90.4634 122.521 88.7768 125.074L88.8362 118.922C88.0999 123.661 86.1995 128.126 83.2777 131.927L78.8951 125.074C78.8951 125.074 75.6052 130.823 75.7595 134.576C72.3866 131.345 70.8543 126.642 71.6502 122.045C71.6502 122.045 69.5004 124.231 69.346 125.953C69.346 125.953 61.6615 119.385 69.346 105.133H86.8884V105.144Z" fill="#FF7F40"/>
<path d="M65.583 96.6877H90.1566V102.044C90.1566 102.888 89.4678 103.576 88.6244 103.576H67.1271C66.2837 103.576 65.5948 102.888 65.5948 102.044V96.6877H65.583Z" fill="#9948E8"/>
<path d="M90.3711 96.6877H65.358C65.358 96.6877 56.5809 49.7021 60.3459 30.1762C61.8543 22.9074 64.9423 16.0544 69.3725 10.104C71.1303 7.68105 73.0544 5.38878 75.1209 3.22716C75.7029 2.62143 76.3087 2.03945 76.7719 1.57625C77.3776 0.982395 78.3515 0.982395 78.9572 1.57625C79.468 2.07509 80.0143 2.62143 80.5963 3.22716C82.6628 5.38878 84.587 7.68105 86.3447 10.104C90.7867 16.0544 93.8749 22.9074 95.3832 30.1762C99.1364 49.7021 90.3711 96.6877 90.3711 96.6877Z" fill="white"/>
<path d="M77.8644 49.8804C82.725 49.8804 86.6653 45.9401 86.6653 41.0795C86.6653 36.2189 82.725 32.2786 77.8644 32.2786C73.0038 32.2786 69.0635 36.2189 69.0635 41.0795C69.0635 45.9401 73.0038 49.8804 77.8644 49.8804Z" fill="#9948E8"/>
<path d="M93.6594 75.5942C93.6594 75.5942 108.232 79.5375 111.474 90.108C113.756 97.4599 111.844 106.736 110.465 111.676C110.3 112.342 109.634 112.757 108.957 112.591C108.565 112.496 108.232 112.211 108.09 111.831C105.857 106.676 100.453 97.3649 90.2744 96.6879C90.3813 93.2673 90.6545 89.8586 91.1058 86.4618C92.0797 78.8366 93.6594 75.5942 93.6594 75.5942Z" fill="#9948E8"/>
<path d="M62.0556 75.5942C62.0556 75.5942 47.4943 79.5375 44.24 90.108C41.9477 97.4599 43.8718 106.736 45.2495 111.676C45.4158 112.342 46.0809 112.757 46.7579 112.591C47.1499 112.496 47.4824 112.211 47.6249 111.831C49.846 106.676 55.25 97.3649 65.4405 96.6879C65.3336 93.2673 65.0605 89.8586 64.6091 86.4618C63.6352 78.8366 62.0556 75.5942 62.0556 75.5942Z" fill="#9948E8"/>
<path d="M77.8629 75.5942C79.597 75.5942 80.9985 76.9957 80.9985 78.7298V109.8C80.9985 111.333 79.7514 112.579 78.2193 112.579H77.5185C75.9863 112.579 74.7393 111.333 74.7393 109.8V78.7298C74.7393 76.9957 76.1407 75.5942 77.8748 75.5942H77.8629Z" fill="#AED0EB"/>
<path d="M86.3681 10.0923H69.3721C71.1298 7.66933 73.054 5.37707 75.1205 3.21544C75.7144 2.60972 76.3083 2.02773 76.7833 1.56453C77.389 0.970677 78.3511 0.970677 78.9568 1.56453C79.4675 2.06337 80.0257 2.60972 80.5959 3.21544C82.6744 5.37707 84.5984 7.66933 86.3681 10.0923Z" fill="#FF576D"/>
<path d="M69.4697 13.1753C71.7549 14.5815 78.2236 16.5503 85.8173 13.1753" stroke="#9948E8" stroke-width="1.05468" stroke-linecap="round"/>
<path d="M69.9971 95.4406V85.9485M85.8173 95.4406V85.9485" stroke="#9948E8" stroke-width="1.05468" stroke-linecap="round"/>
</g>
<path d="M131.938 45.7454L130.485 46.1051C129.589 46.3249 128.887 47.1192 128.687 48.1284L128.367 49.7671C128.282 50.1967 127.737 50.1967 127.653 49.7671L127.332 48.1284C127.133 47.1192 126.431 46.3299 125.534 46.1051L124.077 45.7454C123.694 45.6504 123.694 45.036 124.077 44.9411L125.534 44.5813C126.431 44.3566 127.133 43.5672 127.332 42.558L127.653 40.9193C127.737 40.4898 128.282 40.4898 128.367 40.9193L128.687 42.558C128.887 43.5672 129.589 44.3566 130.485 44.5813L131.938 44.9411C132.325 45.0309 132.325 45.6504 131.938 45.7454Z" fill="#FF576D"/>
<path d="M120.409 33.0001L119.319 33.2798C118.646 33.4507 118.12 34.0686 117.97 34.8535L117.731 36.128C117.668 36.4622 117.257 36.4622 117.194 36.128L116.955 34.8535C116.805 34.0686 116.279 33.4546 115.606 33.2798L114.513 33.0001C114.226 32.9262 114.226 32.4482 114.513 32.3744L115.606 32.0947C116.279 31.9199 116.805 31.3059 116.955 30.521L117.194 29.2464C117.257 28.9123 117.668 28.9123 117.731 29.2464L117.97 30.521C118.12 31.3059 118.646 31.9199 119.319 32.0947L120.409 32.3744C120.699 32.4443 120.699 32.9262 120.409 33.0001Z" fill="#FF576D"/>
<path d="M135.247 23.4185L134.52 23.6183C134.072 23.7405 133.721 24.1817 133.621 24.7424L133.461 25.6528C133.419 25.8915 133.146 25.8915 133.104 25.6528L132.943 24.7424C132.843 24.1817 132.493 23.7432 132.044 23.6183L131.316 23.4185C131.125 23.3657 131.125 23.0244 131.316 22.9717L132.044 22.7718C132.493 22.647 132.843 22.2084 132.943 21.6478L133.104 20.7374C133.146 20.4987 133.419 20.4987 133.461 20.7374L133.621 21.6478C133.721 22.2084 134.072 22.647 134.52 22.7718L135.247 22.9717C135.44 23.0216 135.44 23.3657 135.247 23.4185Z" fill="#FF576D"/>
</g>
<defs>
<clipPath id="clip0_151_279">
<rect width="155.038" height="147.656" fill="white" transform="translate(0.391602 0.519287)"/>
</clipPath>
</defs>
</svg>
