<svg width="148" height="148" viewBox="0 0 148 148" fill="none" xmlns="http://www.w3.org/2000/svg">
<g clip-path="url(#clip0_151_246)">
<mask id="mask0_151_246" style="mask-type:luminance" maskUnits="userSpaceOnUse" x="0" y="0" width="148" height="148">
<path d="M147.742 0.14624H0.0869141V147.802H147.742V0.14624Z" fill="white"/>
</mask>
<g mask="url(#mask0_151_246)">
<mask id="mask1_151_246" style="mask-type:luminance" maskUnits="userSpaceOnUse" x="0" y="0" width="148" height="148">
<path d="M147.746 0.146729H0.0908203V147.802H147.746V0.146729Z" fill="white"/>
</mask>
<g mask="url(#mask1_151_246)">
<path d="M93.7266 101.098L72.0855 107.676C72.0855 107.676 68.6031 93.2774 56.4971 88.2241C57.2402 76.5966 63.0243 54.0845 64.714 47.6861L73.6597 77.1734C72.0947 78.1941 71.6514 80.2923 72.6757 81.8686C73.7 83.4448 75.7947 83.8769 77.3709 82.8526C78.9471 81.8283 79.3793 79.7337 78.3549 78.1574C77.7207 77.1811 76.6381 76.6075 75.472 76.6142L66.5263 47.127C71.4907 51.5047 88.8106 67.0167 95.8766 76.2763C88.6068 87.19 93.712 101.09 93.712 101.09L93.7266 101.098Z" fill="#DFACFD"/>
<path d="M95.8748 76.2644C88.8088 67.005 71.4888 51.4929 66.5244 47.1152L75.4701 76.6025C77.3212 76.5841 78.8462 78.0729 78.8681 79.9353C78.8825 81.4309 77.9068 82.7538 76.4845 83.1873L82.9189 104.383L93.7543 101.101C93.7543 101.101 88.6455 87.1898 95.9006 76.2685L95.8748 76.2644Z" fill="#C57EFD"/>
<path d="M74.2795 108.895L75.4443 112.737C75.7089 113.61 76.6304 114.103 77.5028 113.839L92.6483 109.246C93.5207 108.982 94.0135 108.061 93.749 107.189L92.5841 103.346C92.3196 102.474 91.398 101.981 90.5257 102.245L75.3801 106.837C74.5078 107.101 74.0149 108.023 74.2795 108.895Z" fill="#FF576D"/>
<path d="M69.7473 106.443L70.8137 109.962C71.1325 111.013 72.2437 111.607 73.2954 111.289L94.7255 104.791C95.7773 104.473 96.3714 103.361 96.0525 102.31L94.9861 98.792C94.6672 97.7403 93.5561 97.1462 92.5044 97.465L71.0743 103.962C70.0226 104.281 69.4283 105.392 69.7473 106.443Z" fill="#FF7726"/>
<path d="M22.6952 116.904C12.99 84.8914 31.1327 50.9594 63.1365 41.2572C95.1492 31.552 129.082 49.6946 138.784 81.6984L137.839 81.9827C128.297 50.5052 94.9163 32.653 63.4298 42.1985C31.9461 51.7532 14.1029 85.1306 23.6456 116.608L22.7013 116.892L22.6952 116.904Z" fill="#9948E8"/>
<path d="M5.56738 58.7113L5.8562 59.6639L120.996 24.7564L120.707 23.8037L5.56738 58.7113Z" fill="#9948E8"/>
<path d="M57.6689 38.7349L60.2764 47.3358L68.8773 44.7282L66.2697 36.1274L57.6689 38.7349Z" fill="white"/>
<path d="M59.9526 47.9501L57.0479 38.4079L66.6021 35.5093L69.5007 45.0635L59.9526 47.9501ZM58.2884 39.0739L60.6003 46.7454L68.2631 44.4064L65.9451 36.7468L58.2973 39.071L58.2884 39.0739Z" fill="#9948E8"/>
<path d="M17.5635 113.763L20.171 122.364L28.7718 119.757L26.1642 111.156L17.5635 113.763Z" fill="white"/>
<path d="M19.841 122.983L16.9424 113.429L26.4966 110.53L29.3952 120.084L19.841 122.983ZM18.1829 114.094L20.498 121.745L28.1486 119.43L25.8305 111.771L18.1829 114.094Z" fill="#9948E8"/>
<path d="M132.962 78.7769L135.569 87.3778L144.17 84.7702L141.563 76.1694L132.962 78.7769Z" fill="white"/>
<path d="M135.247 88.0075L132.349 78.4533L141.903 75.5547L144.801 85.109L135.247 88.0075ZM133.587 79.1103L135.904 86.77L143.553 84.4458L141.236 76.7952L133.587 79.1103Z" fill="#9948E8"/>
<path d="M122.476 28.4769C124.838 27.716 126.135 25.1841 125.375 22.8218C124.613 20.4595 122.082 19.1615 119.72 19.9225C117.357 20.6835 116.059 23.2153 116.82 25.5776C117.581 27.9399 120.113 29.2379 122.476 28.4769Z" fill="white"/>
<path d="M118.751 28.6013C116.321 27.3025 115.397 24.2831 116.693 21.8438C117.993 19.4134 121.011 18.4906 123.451 19.7865C124.62 20.4159 125.5 21.4771 125.879 22.7491C126.68 25.3896 125.185 28.1716 122.546 28.9724C121.285 29.3584 119.916 29.2218 118.751 28.6013ZM122.99 20.6722C121.042 19.6362 118.63 20.3733 117.591 22.3116C116.555 24.2588 117.292 26.6708 119.231 27.7098C121.168 28.7486 123.59 28.0087 124.629 26.0704C125.126 25.143 125.234 24.0528 124.926 23.0363C124.618 22.0199 123.925 21.1674 122.99 20.6722Z" fill="#9948E8"/>
<path d="M7.0925 63.4654C9.45475 62.7045 10.7528 60.1726 9.99184 57.8103C9.23086 55.4482 6.69899 54.1501 4.33674 54.911C1.97449 55.672 0.676417 58.2038 1.4374 60.5661C2.19838 62.9284 4.73025 64.2264 7.0925 63.4654Z" fill="white"/>
<path d="M3.35868 63.5919C0.925447 62.2842 0.0115851 59.2618 1.31034 56.8315C2.60908 54.4011 5.64043 53.4844 8.07076 54.7832C9.23965 55.4125 10.1103 56.4767 10.4964 57.7368C11.2971 60.3772 9.80297 63.1593 7.16255 63.9602C5.89342 64.349 4.53369 64.2094 3.3648 63.5799L3.35868 63.5919ZM7.59716 55.6628C5.64697 54.6177 3.22602 55.3577 2.18097 57.308C1.13591 59.2582 1.87596 61.6791 3.82616 62.7242C5.77636 63.7693 8.1973 63.0292 9.24236 61.079C9.73752 60.1425 9.8535 59.0494 9.54596 58.0329C9.23844 57.0165 8.53647 56.1669 7.6091 55.6689L7.59716 55.6628Z" fill="#9948E8"/>
<path d="M78.3057 113.236L91.7986 108.889L96.7339 124.209C97.3154 126.014 96.326 127.944 94.521 128.525L87.5572 130.769C85.7523 131.351 83.8225 130.36 83.2411 128.556L78.3057 113.236Z" fill="#B974FB"/>
</g>
</g>
</g>
<defs>
<clipPath id="clip0_151_246">
<rect width="147.656" height="147.656" fill="white" transform="translate(0.0830078 0.145752)"/>
</clipPath>
</defs>
</svg>
