<svg width="1440" height="1205" viewBox="0 0 1440 1205" fill="none" xmlns="http://www.w3.org/2000/svg">
<g clip-path="url(#clip0_88_2261)">
<g clip-path="url(#clip1_88_2261)">
<path d="M1419.02 0V1202.06" stroke="#C77FFF" stroke-width="1.07342"/>
<path d="M1190.81 0V1202.06" stroke="#C77FFF" stroke-width="1.07342"/>
<path d="M962.604 0V1202.06" stroke="#C77FFF" stroke-width="1.07342"/>
<path d="M734.386 0V1202.06" stroke="#C77FFF" stroke-width="1.07342"/>
<path d="M506.171 0V1202.06" stroke="#C77FFF" stroke-width="1.07342"/>
<path d="M277.957 0V1202.06" stroke="#C77FFF" stroke-width="1.07342"/>
<path d="M49.7432 0V1202.06" stroke="#C77FFF" stroke-width="1.07342"/>
<path d="M1647.24 85.6846H-206.364" stroke="#C77FFF" stroke-width="1.07342"/>
<path d="M1647.24 309.209H-206.364" stroke="#C77FFF" stroke-width="1.07342"/>
<path d="M1647.24 532.733H-206.364" stroke="#C77FFF" stroke-width="1.07342"/>
<path d="M1647.24 756.257H-206.364" stroke="#C77FFF" stroke-width="1.07342"/>
<path d="M1648.51 1034.42H-205.096" stroke="#C77FFF" stroke-width="1.07342"/>
<path d="M1647.24 1203.31H-206.364" stroke="#C77FFF" stroke-width="1.07342"/>
<path d="M1435.76 64.9462L1430.24 66.176C1426.83 66.9344 1424.17 69.6333 1423.42 73.0904L1422.21 78.6863C1421.88 80.1621 1419.81 80.1621 1419.5 78.6863L1418.28 73.0904C1417.53 69.6333 1414.87 66.9344 1411.46 66.176L1405.94 64.9462C1404.48 64.6182 1404.48 62.5138 1405.94 62.1927L1411.46 60.9628C1414.87 60.2044 1417.53 57.5055 1418.28 54.0483L1419.5 48.4526C1419.82 46.9767 1421.89 46.9767 1422.21 48.4526L1423.42 54.0483C1424.17 57.5055 1426.83 60.2044 1430.24 60.9628L1435.76 62.1927C1437.22 62.5138 1437.22 64.6251 1435.76 64.9462Z" fill="#9948E8"/>
<path d="M1207.12 92.7401L1201.6 93.9699C1198.19 94.7283 1195.53 97.4271 1194.79 100.884L1193.57 106.48C1193.24 107.956 1191.17 107.956 1190.86 106.48L1189.64 100.884C1188.89 97.4271 1186.23 94.7283 1182.82 93.9699L1177.3 92.7401C1175.84 92.4122 1175.84 90.3077 1177.3 89.9866L1182.82 88.7567C1186.23 87.9983 1188.89 85.2995 1189.64 81.8423L1190.86 76.2465C1191.18 74.7707 1193.25 74.7707 1193.57 76.2465L1194.79 81.8423C1195.53 85.2995 1198.19 87.9983 1201.6 88.7567L1207.12 89.9866C1208.58 90.3077 1208.58 92.4189 1207.12 92.7401Z" fill="#9948E8"/>
<path d="M1434.68 1116.28L1429.17 1117.51C1425.75 1118.27 1423.09 1120.98 1422.35 1124.43L1421.14 1130.02C1420.81 1131.49 1418.73 1131.49 1418.42 1130.02L1417.21 1124.43C1416.46 1120.98 1413.8 1118.27 1410.38 1117.51L1404.86 1116.28C1403.41 1115.95 1403.41 1113.85 1404.86 1113.53L1410.38 1112.3C1413.8 1111.54 1416.46 1108.85 1417.21 1105.39L1418.42 1099.79C1418.74 1098.32 1420.82 1098.32 1421.14 1099.79L1422.35 1105.39C1423.09 1108.85 1425.75 1111.54 1429.17 1112.3L1434.68 1113.53C1436.14 1113.85 1436.14 1115.96 1434.68 1116.28Z" fill="#9948E8"/>
<path d="M64.9954 87.3729L59.4823 88.6027C56.071 89.3611 53.4089 92.0599 52.6607 95.5172L51.4467 101.113C51.1236 102.589 49.0476 102.589 48.7309 101.113L47.5169 95.5172C46.7687 92.0599 44.1066 89.3611 40.6953 88.6027L35.1747 87.3729C33.7191 87.045 33.7191 84.9405 35.1747 84.6194L40.6953 83.3896C44.1066 82.6311 46.7687 79.9323 47.5169 76.4751L48.7309 70.8793C49.054 69.4035 51.13 69.4035 51.4467 70.8793L52.6607 76.4751C53.4089 79.9323 56.071 82.6311 59.4823 83.3896L64.9954 84.6194C66.4585 84.9405 66.4585 87.0518 64.9954 87.3729Z" fill="#9948E8"/>
<path d="M66.0689 1141.68L60.5558 1142.92C57.1445 1143.67 54.4824 1146.37 53.7342 1149.83L52.5202 1155.42C52.1971 1156.9 50.1211 1156.9 49.8044 1155.42L48.5904 1149.83C47.8422 1146.37 45.1801 1143.67 41.7688 1142.92L36.2482 1141.68C34.7926 1141.35 34.7926 1139.24 36.2482 1138.93L41.7688 1137.7C45.1801 1136.94 47.8422 1134.24 48.5904 1130.79L49.8044 1125.18C50.1275 1123.71 52.2035 1123.71 52.5202 1125.18L53.7342 1130.79C54.4824 1134.24 57.1445 1136.94 60.5558 1137.7L66.0689 1138.93C67.532 1139.24 67.532 1141.36 66.0689 1141.68Z" fill="#9948E8"/>
</g>
</g>
<defs>
<clipPath id="clip0_88_2261">
<rect width="1440" height="1204.38" fill="white"/>
</clipPath>
<clipPath id="clip1_88_2261">
<rect width="1854.87" height="1204.38" fill="white" transform="translate(-207.437)"/>
</clipPath>
</defs>
</svg>
