<svg width="90" height="54" viewBox="0 0 90 54" fill="none" xmlns="http://www.w3.org/2000/svg">
<path d="M40.5177 46.4373H9.73535V53.3297H34.5756L40.5177 46.4373Z" fill="#32313B" stroke="#32313B" stroke-width="0.606849" stroke-miterlimit="10"/>
<path d="M31.6122 31.34H6.4576L0.571289 38.1869V53.3302H25.726L31.6122 46.4832V31.34Z" fill="#8173E6" stroke="#32313B" stroke-width="0.606849" stroke-miterlimit="10" stroke-linejoin="round"/>
<path d="M25.7259 38.1862H0.571289V53.3295H25.7259V38.1862Z" fill="#B0A6F9" stroke="#32313B" stroke-width="0.606849" stroke-miterlimit="10" stroke-linejoin="round"/>
<path d="M25.7275 38.1869L31.6138 31.34" stroke="#32313B" stroke-width="0.606849" stroke-miterlimit="10" stroke-linejoin="round"/>
<path d="M87.6502 46.4373H56.8682V53.3297H82.1518L87.6502 46.4373Z" fill="#32313B" stroke="#32313B" stroke-width="0.606849" stroke-miterlimit="10"/>
<path d="M78.7449 31.3399H53.5902L47.7041 38.1869V53.3301H72.8587L78.7449 46.4832V31.3399Z" fill="#8173E6" stroke="#32313B" stroke-width="0.606849" stroke-miterlimit="10" stroke-linejoin="round"/>
<path d="M72.8587 38.1862H47.7041V53.3295H72.8587V38.1862Z" fill="#B0A6F9" stroke="#32313B" stroke-width="0.606849" stroke-miterlimit="10" stroke-linejoin="round"/>
<path d="M72.8604 38.1869L78.7466 31.34" stroke="#32313B" stroke-width="0.606849" stroke-miterlimit="10" stroke-linejoin="round"/>
<path d="M17.6708 36.8161C22.172 36.8161 25.821 35.9179 25.821 34.81C25.821 33.702 22.172 32.8038 17.6708 32.8038C13.1695 32.8038 9.52051 33.702 9.52051 34.81C9.52051 35.9179 13.1695 36.8161 17.6708 36.8161Z" fill="#32313B"/>
<path d="M64.1237 36.8161C68.6249 36.8161 72.2738 35.9179 72.2738 34.81C72.2738 33.702 68.6249 32.8038 64.1237 32.8038C59.6225 32.8038 55.9736 33.702 55.9736 34.81C55.9736 35.9179 59.6225 36.8161 64.1237 36.8161Z" fill="#32313B"/>
<path d="M66.9898 21.1745C65.5214 17.2032 63.372 13.7027 60.6009 10.7698C55.1329 4.98283 47.5757 1.79602 39.321 1.79602C31.0663 1.79602 23.5091 4.98295 18.0411 10.7698C15.27 13.7027 13.1205 17.2032 11.6524 21.1745C10.1652 25.1974 9.41113 29.6273 9.41113 34.3412C9.41113 35.3954 12.3659 36.25 16.0105 36.25C19.6552 36.25 22.61 35.3954 22.61 34.3412C22.61 28.33 24.3475 23.3136 27.6349 19.8347C30.6265 16.6684 34.6677 14.9949 39.3212 14.9949C43.9746 14.9949 48.0156 16.6684 51.0075 19.8347C54.2946 23.3136 56.0321 28.33 56.0321 34.3412C56.0321 35.3954 58.987 36.25 62.6316 36.25C66.2764 36.25 69.2311 35.3954 69.2311 34.3412C69.2311 29.6273 68.477 25.1974 66.9898 21.1745Z" fill="#49B889" stroke="#32313B" stroke-width="0.606849" stroke-miterlimit="10" stroke-linecap="round" stroke-linejoin="round"/>
<path d="M65.4077 35.8858C65.4077 17.02 53.7301 5.62573 39.3254 5.62573C24.9205 5.62573 13.2432 17.02 13.2432 35.8858L13.2507 36.0765C14.0918 36.1888 15.0277 36.2519 16.0148 36.2519C19.6596 36.2519 22.6143 35.3974 22.6143 34.3431C22.6143 28.332 24.3519 23.3156 27.6393 19.8367C30.631 16.6704 34.6721 14.9968 39.3255 14.9968C43.979 14.9968 48.0199 16.6704 51.0118 19.8367C54.2991 23.3156 56.0366 28.332 56.0366 34.3431C56.0366 35.3974 58.9915 36.2519 62.6361 36.2519C63.6247 36.2519 64.5621 36.1887 65.4041 36.0758L65.4077 35.8858Z" fill="#FBB598" stroke="#32313B" stroke-width="0.606849" stroke-miterlimit="10" stroke-linejoin="round"/>
<path d="M39.3204 9.84741C27.5093 9.84741 17.9346 19.7009 17.9346 36.0159L17.9675 36.1646C20.6565 35.9235 22.6094 35.1984 22.6094 34.3414C22.6094 28.3302 24.347 23.3139 27.6344 19.8349C30.626 16.6686 34.6671 14.9951 39.3205 14.9951C43.974 14.9951 48.015 16.6686 51.0069 19.8349C54.2941 23.3139 56.0316 28.3302 56.0316 34.3414C56.0316 35.1996 57.9904 35.9254 60.6851 36.1658L60.7064 36.016C60.7063 19.7008 51.1314 9.84741 39.3204 9.84741Z" fill="#FDB2D2" stroke="#32313B" stroke-width="0.606849" stroke-miterlimit="10" stroke-linejoin="round"/>
</svg>
