<svg width="75" height="72" viewBox="0 0 75 72" fill="none" xmlns="http://www.w3.org/2000/svg">
<g clip-path="url(#clip0_160_1145)">
<mask id="mask0_160_1145" style="mask-type:luminance" maskUnits="userSpaceOnUse" x="0" y="0" width="75" height="72">
<path d="M74.1376 0H0V71.87H74.1376V0Z" fill="white"/>
</mask>
<g mask="url(#mask0_160_1145)">
<path d="M37.0611 64.1766C52.2633 64.1766 64.5872 51.8527 64.5872 36.6505C64.5872 21.4483 52.2633 9.12451 37.0611 9.12451C21.8589 9.12451 9.53516 21.4483 9.53516 36.6505C9.53516 51.8527 21.8589 64.1766 37.0611 64.1766Z" fill="#9948E8"/>
<path d="M37.0642 18.1763C41.8351 18.1763 45.7027 14.3087 45.7027 9.53785C45.7027 4.76697 41.8351 0.899414 37.0642 0.899414C32.2934 0.899414 28.4258 4.76697 28.4258 9.53785C28.4258 14.3087 32.2934 18.1763 37.0642 18.1763Z" fill="#9948E8" stroke="#F9F3FF" stroke-width="1.79967" stroke-miterlimit="10"/>
<path d="M54.7987 24.6558C59.5695 24.6558 63.4371 20.7882 63.4371 16.0173C63.4371 11.2465 59.5695 7.37891 54.7987 7.37891C50.0278 7.37891 46.1602 11.2465 46.1602 16.0173C46.1602 20.7882 50.0278 24.6558 54.7987 24.6558Z" fill="#9948E8" stroke="#F9F3FF" stroke-width="1.79967" stroke-miterlimit="10"/>
<path d="M64.5993 41.0322C69.3702 41.0322 73.2378 37.1647 73.2378 32.3938C73.2378 27.6229 69.3702 23.7554 64.5993 23.7554C59.8285 23.7554 55.9609 27.6229 55.9609 32.3938C55.9609 37.1647 59.8285 41.0322 64.5993 41.0322Z" fill="#9948E8" stroke="#F9F3FF" stroke-width="1.79967" stroke-miterlimit="10"/>
<path d="M60.826 58.9751C65.5968 58.9751 69.4644 55.1076 69.4644 50.3367C69.4644 45.5658 65.5968 41.6982 60.826 41.6982C56.0551 41.6982 52.1875 45.5658 52.1875 50.3367C52.1875 55.1076 56.0551 58.9751 60.826 58.9751Z" fill="#9948E8" stroke="#F9F3FF" stroke-width="1.79967" stroke-miterlimit="10"/>
<path d="M45.7009 70.9702C50.4718 70.9702 54.3394 67.1027 54.3394 62.3318C54.3394 57.5609 50.4718 53.6934 45.7009 53.6934C40.9301 53.6934 37.0625 57.5609 37.0625 62.3318C37.0625 67.1027 40.9301 70.9702 45.7009 70.9702Z" fill="#9948E8" stroke="#F9F3FF" stroke-width="1.79967" stroke-miterlimit="10"/>
<path d="M19.7946 24.6558C24.5655 24.6558 28.4331 20.7882 28.4331 16.0173C28.4331 11.2465 24.5655 7.37891 19.7946 7.37891C15.0237 7.37891 11.1562 11.2465 11.1562 16.0173C11.1562 20.7882 15.0237 24.6558 19.7946 24.6558Z" fill="#9948E8" stroke="#F9F3FF" stroke-width="1.79967" stroke-miterlimit="10"/>
<path d="M9.53687 40.3574C14.3077 40.3574 18.1753 36.4899 18.1753 31.719C18.1753 26.9481 14.3077 23.0806 9.53687 23.0806C4.76599 23.0806 0.898438 26.9481 0.898438 31.719C0.898438 36.4899 4.76599 40.3574 9.53687 40.3574Z" fill="#9948E8" stroke="#F9F3FF" stroke-width="1.79967" stroke-miterlimit="10"/>
<path d="M12.4978 58.4087C17.2687 58.4087 21.1362 54.5412 21.1362 49.7703C21.1362 44.9994 17.2687 41.1318 12.4978 41.1318C7.72694 41.1318 3.85938 44.9994 3.85938 49.7703C3.85938 54.5412 7.72694 58.4087 12.4978 58.4087Z" fill="#9948E8" stroke="#F9F3FF" stroke-width="1.79967" stroke-miterlimit="10"/>
<path d="M26.8065 70.9702C31.5773 70.9702 35.4449 67.1027 35.4449 62.3318C35.4449 57.5609 31.5773 53.6934 26.8065 53.6934C22.0356 53.6934 18.168 57.5609 18.168 62.3318C18.168 67.1027 22.0356 70.9702 26.8065 70.9702Z" fill="#9948E8" stroke="#F9F3FF" stroke-width="1.79967" stroke-miterlimit="10"/>
</g>
</g>
<defs>
<clipPath id="clip0_160_1145">
<rect width="75" height="72" fill="white"/>
</clipPath>
</defs>
</svg>
