<svg width="97" height="54" viewBox="0 0 97 54" fill="none" xmlns="http://www.w3.org/2000/svg">
<path d="M94.7828 46.8866H17.3877V52.3312H84.8838L94.7828 46.8866Z" fill="#32313B" stroke="#32313B" stroke-width="0.689018" stroke-miterlimit="10"/>
<path d="M43.3111 24.3028L31.1371 1.43054H12.0645L1.60254 6.59322L13.7764 29.4655L1.60254 52.3377H20.6752L31.1371 47.1749L43.3111 24.3028Z" fill="#EB81AF" stroke="#32313B" stroke-width="0.689018" stroke-miterlimit="10" stroke-linejoin="round"/>
<path d="M1.79004 6.48236L12.1439 1.229L31.0156 1.33112L20.6106 6.58433L1.79004 6.48236Z" fill="#FDB2D2"/>
<path d="M43.3111 24.3028L31.1371 1.43054H12.0645L1.60254 6.59322L13.7764 29.4655L1.60254 52.3377H20.6752L31.1371 47.1748L43.3111 24.3028Z" stroke="#32313B" stroke-width="0.689018" stroke-miterlimit="10" stroke-linejoin="round"/>
<path d="M20.6752 6.58459H1.60254L13.7764 29.4569L1.60254 52.329H20.6752L32.8489 29.4569L20.6752 6.58459Z" fill="#FDB2D2" stroke="#32313B" stroke-width="0.689018" stroke-miterlimit="10" stroke-linejoin="round"/>
<path d="M20.6729 6.59322L31.1349 1.43054" stroke="#32313B" stroke-width="0.689018" stroke-miterlimit="10" stroke-linejoin="round"/>
<path d="M32.8486 29.4597L43.3106 24.297" stroke="#32313B" stroke-width="0.689018" stroke-miterlimit="10" stroke-linejoin="round"/>
<path d="M66.2055 24.3028L54.0318 1.43054H34.9592L24.4971 6.59322L36.671 29.4655L24.4971 52.3377H43.5696L54.0318 47.1749L66.2055 24.3028Z" fill="#F0946C" stroke="#32313B" stroke-width="0.689018" stroke-miterlimit="10" stroke-linejoin="round"/>
<path d="M24.7861 6.64511L35.0601 1.35056L53.9061 1.28772L43.4431 6.58213L24.7861 6.64511Z" fill="#FBB598"/>
<path d="M66.2055 24.3028L54.0318 1.43054H34.9592L24.4971 6.59322L36.671 29.4655L24.4971 52.3377H43.5696L54.0318 47.1748L66.2055 24.3028Z" stroke="#32313B" stroke-width="0.689018" stroke-miterlimit="10" stroke-linejoin="round"/>
<path d="M43.5697 6.59302H24.4971L36.671 29.4653L24.4971 52.3374H43.5697L55.7436 29.4653L43.5697 6.59302Z" fill="#FBB598" stroke="#32313B" stroke-width="0.689018" stroke-miterlimit="10" stroke-linejoin="round"/>
<path d="M43.5674 6.59322L54.0295 1.43054" stroke="#32313B" stroke-width="0.689018" stroke-miterlimit="10" stroke-linejoin="round"/>
<path d="M55.7354 29.4597L66.1973 24.297" stroke="#32313B" stroke-width="0.689018" stroke-miterlimit="10" stroke-linejoin="round"/>
<path d="M89.1507 24.2944L76.9768 1.42212H57.9042L47.4424 6.58479L59.6161 29.457L47.4424 52.3293H66.5149L76.9768 47.1664L89.1507 24.2944Z" fill="#EB81AF" stroke="#32313B" stroke-width="0.689018" stroke-miterlimit="10" stroke-linejoin="round"/>
<path d="M47.751 6.41322L57.9014 1.42212L76.6156 1.55427L66.5505 6.47111L47.751 6.41322Z" fill="#FDB2D2"/>
<path d="M89.1507 24.2944L76.9768 1.42212H57.9042L47.4424 6.58479L59.6161 29.457L47.4424 52.3293H66.5149L76.9768 47.1664L89.1507 24.2944Z" stroke="#32313B" stroke-width="0.689018" stroke-miterlimit="10" stroke-linejoin="round"/>
<path d="M66.5149 6.58459H47.4424L59.6161 29.4569L47.4424 52.329H66.5149L78.6888 29.4569L66.5149 6.58459Z" fill="#FDB2D2" stroke="#32313B" stroke-width="0.689018" stroke-miterlimit="10" stroke-linejoin="round"/>
<path d="M66.5127 6.58479L76.9746 1.42212" stroke="#32313B" stroke-width="0.689018" stroke-miterlimit="10" stroke-linejoin="round"/>
<path d="M78.6924 29.4597L89.1544 24.297" stroke="#32313B" stroke-width="0.689018" stroke-miterlimit="10" stroke-linejoin="round"/>
<path d="M20.8323 52.0094L32.7754 29.3177L35.8988 27.8479L36.6639 29.4606L25.7014 49.8965L20.6729 52.3329" fill="#32313B"/>
<path d="M43.8009 52.0094L55.7439 29.3177L58.8676 27.8479L59.6325 29.4606L48.6701 49.8965L43.6416 52.3329" fill="#32313B"/>
</svg>
