<svg width="69" height="69" viewBox="0 0 69 69" fill="none" xmlns="http://www.w3.org/2000/svg">
<mask id="mask0_160_1133" style="mask-type:luminance" maskUnits="userSpaceOnUse" x="0" y="0" width="69" height="69">
<path d="M69 0H0V69H69V0Z" fill="white"/>
</mask>
<g mask="url(#mask0_160_1133)">
<path d="M34.4944 68.9887C53.5451 68.9887 68.9887 53.5451 68.9887 34.4944C68.9887 15.4437 53.5451 0 34.4944 0C15.4437 0 0 15.4437 0 34.4944C0 53.5451 15.4437 68.9887 34.4944 68.9887Z" fill="#E74C3C"/>
<path d="M50.813 50.6261C60.0986 50.6261 67.6261 43.0986 67.6261 33.813C67.6261 24.5275 60.0986 17 50.813 17C41.5275 17 34 24.5275 34 33.813C34 43.0986 41.5275 50.6261 50.813 50.6261Z" fill="#FFDADA" stroke="#FFDADA" stroke-miterlimit="10"/>
</g>
</svg>
