<svg width="71" height="59" viewBox="0 0 71 59" fill="none" xmlns="http://www.w3.org/2000/svg">
<mask id="mask0_160_1121" style="mask-type:luminance" maskUnits="userSpaceOnUse" x="0" y="0" width="71" height="59">
<path d="M70.3389 0.328613H0.328125V58.0402H70.3389V0.328613Z" fill="white"/>
</mask>
<g mask="url(#mask0_160_1121)">
<path d="M41.2273 58.0307C57.3043 58.0307 70.3374 45.1137 70.3374 29.1797C70.3374 13.2457 57.3043 0.328613 41.2273 0.328613C25.1503 0.328613 12.1172 13.2457 12.1172 29.1797C12.1172 45.1137 25.1503 58.0307 41.2273 58.0307Z" fill="#9948E8"/>
<path d="M23.4209 17.9749H0.800781V40.3935H23.4209V17.9749Z" fill="#9948E8"/>
<path d="M23.4211 40.394C17.226 38.9604 11.031 37.5363 4.83594 36.1027V21.6724C11.031 20.4369 17.226 19.2013 23.4211 17.9658C23.4211 25.4451 23.4211 32.9242 23.4211 40.394Z" fill="#F9F3FF"/>
<path d="M38.3888 50.3157C49.9513 50.3157 59.3245 41.0259 59.3245 29.5663C59.3245 18.1067 49.9513 8.81689 38.3888 8.81689C26.8263 8.81689 17.4531 18.1067 17.4531 29.5663C17.4531 41.0259 26.8263 50.3157 38.3888 50.3157Z" fill="#F9F3FF"/>
</g>
</svg>
