<svg width="87" height="58" viewBox="0 0 87 58" fill="none" xmlns="http://www.w3.org/2000/svg">
<path d="M85.7629 51.7839H1.95801V57.7425H78.6513L85.7629 51.7839Z" fill="#32313B"/>
<path d="M78.6379 1.25488H43.671L36.9541 6.41885V19.8437H51.8776V38.5469H43.671L36.9541 43.7107V57.1354H71.921L78.6379 51.9716V1.25488Z" fill="#49B889" stroke="#32313B" stroke-width="0.824967" stroke-miterlimit="10" stroke-linejoin="round"/>
<path d="M47.3923 14.8692H32.9015V1.44458H8.60864L1.8916 6.60839V57.3252H26.1844L32.9015 52.1614V43.9003H40.6755L47.3923 38.7365V14.8692Z" fill="#8173E6" stroke="#32313B" stroke-width="0.824967" stroke-miterlimit="10" stroke-linejoin="round"/>
<path d="M40.6755 20.0347H26.1844V6.60986H1.8916V57.3267H26.1844V43.9019H40.6755V20.0347Z" fill="#B0A6F9" stroke="#32313B" stroke-width="0.824967" stroke-miterlimit="10" stroke-linejoin="round"/>
<path d="M26.1807 6.60839L32.8978 1.44458" stroke="#32313B" stroke-width="0.824967" stroke-miterlimit="10" stroke-linejoin="round"/>
<path d="M40.6768 20.0325L47.3936 14.8687" stroke="#32313B" stroke-width="0.824967" stroke-miterlimit="10" stroke-linejoin="round"/>
<path d="M26.1807 43.9053V57.6401L32.7736 52.1954V43.9053H26.1807Z" fill="#32313B"/>
<path d="M26.1807 20.0325L32.8978 14.8687" stroke="#32313B" stroke-width="0.824967" stroke-miterlimit="10" stroke-linejoin="round"/>
<path d="M51.8776 20.0437H36.9541V6.6189H71.921V57.3356H36.9541V43.9107H51.8776V20.0437Z" fill="#81D8B4" stroke="#32313B" stroke-width="0.824967" stroke-miterlimit="10" stroke-linejoin="round"/>
<path d="M71.9189 6.41885L78.6357 1.25488" stroke="#32313B" stroke-width="0.824967" stroke-miterlimit="10" stroke-linejoin="round"/>
<path d="M40.6729 20.0247V43.7274L47.3658 38.7288V20.1594L40.6729 20.0247Z" fill="#32313B"/>
</svg>
