<svg width="37" height="38" viewBox="0 0 37 38" fill="none" xmlns="http://www.w3.org/2000/svg">
<path d="M5.72959 6.33879C5.74153 6.07093 5.89483 5.82706 6.18103 5.6598C6.47445 5.48832 6.85228 5.43614 7.18525 5.53958C8.13526 5.83474 9.31349 6.08018 10.6103 6.08018C11.987 6.08018 13.705 5.3874 15.2028 4.63083C16.7383 3.85508 18.1889 2.93427 19.0762 2.34217C19.3646 2.14971 19.7375 2.1421 20.0295 2.31987C20.9859 2.90199 22.5783 3.8294 24.2401 4.61384C25.0709 5.00604 25.9312 5.36829 26.7463 5.6338C27.5512 5.89605 28.3602 6.08018 29.0738 6.08018C29.8109 6.08018 30.3055 5.81343 30.6851 5.52828C30.7802 5.45682 30.9052 5.35352 31.0026 5.27313C31.0512 5.23301 31.0928 5.19861 31.1204 5.17671C31.2396 5.08205 31.3311 5.02068 31.4215 4.97829C31.4237 4.97765 31.4382 4.97359 31.4685 4.97576C31.9681 5.01151 32.6012 5.22852 33.1066 5.55876C33.6492 5.91344 33.822 6.24346 33.8293 6.40988C33.9787 9.8402 34.003 16.1545 32.7076 22.1004C31.9379 25.6336 28.9846 29.1442 25.9485 31.8237C24.4469 33.1489 22.9601 34.2402 21.7807 34.9961C21.1902 35.3746 20.686 35.6632 20.3023 35.8538C20.1097 35.9495 19.9585 36.015 19.8486 36.0548C19.8168 36.0664 19.7922 36.0744 19.7742 36.0798C19.756 36.0746 19.7308 36.0669 19.6981 36.0556C19.5893 36.0181 19.4402 35.9564 19.2508 35.8665C18.8734 35.6873 18.3782 35.4158 17.7983 35.0591C16.6402 34.3466 15.1809 33.3164 13.7044 32.0608C10.7182 29.5212 7.80698 26.1818 7.00315 22.7835C5.54154 16.6041 5.57155 9.88421 5.72959 6.33879Z" fill="black" stroke="black" stroke-width="1.56907" stroke-linejoin="round"/>
<path d="M4.18273 5.70916C4.20711 5.26927 4.66865 4.86966 5.24616 4.96793C6.24413 5.13775 7.56674 5.29558 9.04002 5.29558C9.75394 5.29558 10.5436 5.10113 11.3187 4.8253C12.1033 4.5461 12.9228 4.1652 13.7107 3.75233C15.2865 2.92657 16.7879 1.94519 17.7134 1.31022C18.0136 1.10421 18.4122 1.10254 18.7131 1.3052C19.6529 1.93813 21.1831 2.921 22.7843 3.74867C23.5849 4.16248 24.4162 4.54429 25.2095 4.82416C25.9928 5.10053 26.7886 5.29558 27.5035 5.29558C28.9268 5.29558 30.1848 5.14828 31.1438 4.98473C31.7339 4.88409 32.21 5.29544 32.2345 5.7412C32.4016 8.78339 32.5023 15.0506 31.1373 21.3158C30.3676 24.8489 27.4143 28.3596 24.3782 31.039C22.8766 32.3643 21.3898 33.4555 20.2104 34.2115C19.6199 34.5901 19.1157 34.8786 18.732 35.0692C18.5394 35.1649 18.3882 35.2305 18.2783 35.2702C18.2465 35.2818 18.2219 35.2898 18.2039 35.2952C18.1857 35.2899 18.1605 35.2823 18.1278 35.271C18.019 35.2335 17.8699 35.1719 17.6805 35.0819C17.3031 34.9027 16.8079 34.6312 16.228 34.2745C15.0699 33.562 13.6106 32.5318 12.1341 31.2762C9.14789 28.7366 6.23667 25.3973 5.43285 21.9989C3.89961 15.5167 4.00819 8.85823 4.18273 5.70916Z" fill="white" stroke="black" stroke-width="1.56907" stroke-linejoin="round"/>
<path fill-rule="evenodd" clip-rule="evenodd" d="M16.9004 11.7681H19.5155C19.9488 11.7681 20.3 12.1193 20.3 12.5526V15.9525H23.6997C24.133 15.9525 24.4842 16.3038 24.4842 16.7371V19.3522C24.4842 19.7855 24.133 20.1367 23.6997 20.1367H20.3V23.5361C20.3 23.9694 19.9488 24.3206 19.5155 24.3206H16.9004C16.4671 24.3206 16.1159 23.9694 16.1159 23.5361V20.1367H12.7162C12.2829 20.1367 11.9316 19.7855 11.9316 19.3522V16.7371C11.9316 16.3038 12.2829 15.9525 12.7162 15.9525H16.1159V12.5526C16.1159 12.1193 16.4671 11.7681 16.9004 11.7681Z" fill="black"/>
<mask id="mask0_151_480" style="mask-type:luminance" maskUnits="userSpaceOnUse" x="11" y="11" width="14" height="14">
<path fill-rule="evenodd" clip-rule="evenodd" d="M16.8994 11.7681H19.5145C19.9478 11.7681 20.2991 12.1193 20.2991 12.5526V15.9525H23.6987C24.132 15.9525 24.4832 16.3038 24.4832 16.7371V19.3522C24.4832 19.7855 24.132 20.1367 23.6987 20.1367H20.2991V23.5361C20.2991 23.9694 19.9478 24.3206 19.5145 24.3206H16.8994C16.4661 24.3206 16.1149 23.9694 16.1149 23.5361V20.1367H12.7152C12.2819 20.1367 11.9307 19.7855 11.9307 19.3522V16.7371C11.9307 16.3038 12.2819 15.9525 12.7152 15.9525H16.1149V12.5526C16.1149 12.1193 16.4661 11.7681 16.8994 11.7681Z" fill="white"/>
</mask>
<g mask="url(#mask0_151_480)">
<path d="M20.2978 15.9525H18.7288V17.5216H20.2978V15.9525ZM20.2978 20.1367V18.5676H18.7288V20.1367H20.2978ZM16.1137 20.1367H17.6827V18.5676H16.1137V20.1367ZM16.1137 15.9525V17.5216H17.6827V15.9525H16.1137ZM19.5133 10.1989H16.8982V13.3371H19.5133V10.1989ZM21.8669 12.5526C21.8669 11.2527 20.8131 10.1989 19.5133 10.1989V13.3371C19.08 13.3371 18.7288 12.9858 18.7288 12.5526H21.8669ZM21.8669 15.9525V12.5526H18.7288V15.9525H21.8669ZM23.6975 14.3834H20.2978V17.5216H23.6975V14.3834ZM26.0511 16.737C26.0511 15.4372 24.9974 14.3834 23.6975 14.3834V17.5216C23.2642 17.5216 22.9129 17.1703 22.9129 16.737H26.0511ZM26.0511 19.3521V16.737H22.9129V19.3521H26.0511ZM23.6975 21.7057C24.9974 21.7057 26.0511 20.652 26.0511 19.3521H22.9129C22.9129 18.9189 23.2642 18.5676 23.6975 18.5676V21.7057ZM20.2978 21.7057H23.6975V18.5676H20.2978V21.7057ZM21.8669 23.536V20.1367H18.7288V23.536H21.8669ZM19.5133 25.8897C20.8131 25.8897 21.8669 24.8359 21.8669 23.536H18.7288C18.7288 23.1027 19.08 22.7515 19.5133 22.7515V25.8897ZM16.8982 25.8897H19.5133V22.7515H16.8982V25.8897ZM14.5446 23.536C14.5446 24.8359 15.5983 25.8897 16.8982 25.8897V22.7515C17.3314 22.7515 17.6827 23.1027 17.6827 23.536H14.5446ZM14.5446 20.1367V23.536H17.6827V20.1367H14.5446ZM12.714 21.7057H16.1137V18.5676H12.714V21.7057ZM10.3604 19.3521C10.3604 20.652 11.4141 21.7057 12.714 21.7057V18.5676C13.1473 18.5676 13.4985 18.9189 13.4985 19.3521H10.3604ZM10.3604 16.737V19.3521H13.4985V16.737H10.3604ZM12.714 14.3834C11.4141 14.3834 10.3604 15.4372 10.3604 16.737H13.4985C13.4985 17.1703 13.1473 17.5216 12.714 17.5216V14.3834ZM16.1137 14.3834H12.714V17.5216H16.1137V14.3834ZM14.5446 12.5526V15.9525H17.6827V12.5526H14.5446ZM16.8982 10.1989C15.5983 10.1989 14.5446 11.2527 14.5446 12.5526H17.6827C17.6827 12.9858 17.3314 13.3371 16.8982 13.3371V10.1989Z" fill="black"/>
</g>
</svg>
