<svg width="38" height="39" viewBox="0 0 38 39" fill="none" xmlns="http://www.w3.org/2000/svg">
<g clip-path="url(#clip0_151_500)">
<mask id="mask0_151_500" style="mask-type:luminance" maskUnits="userSpaceOnUse" x="0" y="0" width="38" height="39">
<path d="M37.6587 0.837891H0.000976562V38.4956H37.6587V0.837891Z" fill="white"/>
</mask>
<g mask="url(#mask0_151_500)">
<path d="M6.3623 7.98597C6.3623 7.55269 6.71355 7.20145 7.14684 7.20145H30.5086C30.505 7.20145 30.507 7.20209 30.515 7.20454C30.5491 7.21518 30.6922 7.25978 30.9548 7.43296C31.238 7.61964 31.5608 7.88923 31.8676 8.19603C32.1744 8.50283 32.444 8.82565 32.6307 9.10879C32.8038 9.37145 32.8485 9.51455 32.8591 9.54867C32.8615 9.55652 32.8622 9.55864 32.8622 9.55503V32.9168C32.8622 33.3501 32.5109 33.7013 32.0777 33.7013H8.71593C8.71946 33.7013 8.71742 33.7007 8.70957 33.6982C8.67545 33.6876 8.53227 33.6429 8.2696 33.4698C7.98654 33.2832 7.66368 33.0135 7.35688 32.7068C7.05008 32.3999 6.78049 32.0771 6.59381 31.794C6.42064 31.5314 6.37603 31.3882 6.3654 31.3541C6.36295 31.3462 6.3623 31.3442 6.3623 31.3477V7.98597Z" fill="black" stroke="black" stroke-width="1.56907"/>
<path d="M30.5086 7.20145H7.14684C6.71355 7.20145 6.3623 7.5527 6.3623 7.98598V31.3477C6.3623 31.781 6.71355 32.1323 7.14684 32.1323H30.5086C30.9419 32.1323 31.2931 31.781 31.2931 31.3477V7.98598C31.2931 7.5527 30.9419 7.20145 30.5086 7.20145Z" fill="white" stroke="black" stroke-width="1.56907"/>
<path d="M12.03 0.837845H10.4609V6.41676H12.03V0.837845Z" fill="black"/>
<path d="M19.0036 0.837845H17.4346V6.41676H19.0036V0.837845Z" fill="black"/>
<path d="M25.9773 0.837845H24.4082V6.41676H25.9773V0.837845Z" fill="black"/>
<path d="M37.6592 12.8671V11.298H32.0803V12.8671H37.6592Z" fill="black"/>
<path d="M25.6301 38.4955H27.1992V32.9166H25.6301V38.4955Z" fill="black"/>
<path d="M18.6575 38.4955H20.2266V32.9166H18.6575V38.4955Z" fill="black"/>
<path d="M11.6839 38.4955H13.2529V32.9166H11.6839V38.4955Z" fill="black"/>
<path d="M0.000976563 26.4663L0.000976562 28.0353H5.5799V26.4663H0.000976563Z" fill="black"/>
<path d="M0.000976563 19.4928L0.000976562 21.0618H5.57989V19.4928H0.000976563Z" fill="black"/>
<path d="M0.000976563 12.5185L0.000976562 14.0876H5.57989V12.5185H0.000976563Z" fill="black"/>
<path d="M37.6592 19.8406V18.2716H32.0803V19.8406H37.6592Z" fill="black"/>
<path d="M37.6592 26.8149V25.2458H32.0803V26.8149H37.6592Z" fill="black"/>
<path d="M21.9674 14.9595H15.6911C14.8246 14.9595 14.1221 15.662 14.1221 16.5286V22.8048C14.1221 23.6714 14.8246 24.3739 15.6911 24.3739H21.9674C22.834 24.3739 23.5365 23.6714 23.5365 22.8048V16.5286C23.5365 15.662 22.834 14.9595 21.9674 14.9595Z" fill="black"/>
</g>
</g>
<defs>
<clipPath id="clip0_151_500">
<rect width="37.6577" height="37.6577" fill="white" transform="translate(0.000976562 0.837891)"/>
</clipPath>
</defs>
</svg>
