<svg width="39" height="39" viewBox="0 0 39 39" fill="none" xmlns="http://www.w3.org/2000/svg">
<g clip-path="url(#clip0_151_452)">
<path d="M1.29199 5.49859C1.29199 5.09096 1.62243 4.76051 2.03006 4.76051H32.5596C32.9338 4.76051 33.4963 5.07927 34.0392 5.68684C34.2904 5.96799 34.4978 6.26865 34.6383 6.53499C34.7083 6.66777 34.7569 6.78296 34.7867 6.8753C34.8014 6.92095 34.8103 6.95706 34.8153 6.98375C34.82 7.00938 34.8203 7.02133 34.8203 7.02133V33.7136C34.8203 34.1213 34.4898 34.4517 34.0823 34.4517H3.59423C3.57834 34.4485 3.53813 34.4394 3.47036 34.4149C3.37819 34.3814 3.26159 34.3293 3.12671 34.2569C2.85647 34.112 2.54624 33.9033 2.25514 33.6539C1.96247 33.403 1.70995 33.1285 1.53583 32.8581C1.35925 32.5839 1.29199 32.3594 1.29199 32.191V5.49859Z" fill="black" stroke="black" stroke-width="1.56907"/>
<path d="M32.476 4.76051H2.03942C1.60613 4.76051 1.25488 5.11176 1.25488 5.54505V32.1446C1.25488 32.5779 1.60613 32.9291 2.03942 32.9291H32.476C32.9093 32.9291 33.2606 32.5779 33.2606 32.1446V5.54505C33.2606 5.11176 32.9093 4.76051 32.476 4.76051Z" fill="white" stroke="black" stroke-width="1.56907"/>
<path d="M19.8863 16.4016C18.9046 16.396 17.9714 16.8517 17.3391 17.6453C16.7107 16.8463 15.7749 16.3894 14.7918 16.4016C12.949 16.4016 11.4551 17.9805 11.4551 19.9282C11.4551 23.2658 16.9667 26.5247 17.1901 26.6506C17.2803 26.7143 17.3979 26.7143 17.4881 26.6506C17.7115 26.5247 23.2231 23.3131 23.2231 19.9282C23.2231 17.9805 21.7292 16.4016 19.8863 16.4016Z" fill="black"/>
<path d="M24.712 6.93332H23.4567C23.37 6.93332 23.2998 7.00357 23.2998 7.09023V8.34548C23.2998 8.43214 23.37 8.50239 23.4567 8.50239H24.712C24.7986 8.50239 24.8689 8.43214 24.8689 8.34548V7.09023C24.8689 7.00357 24.7986 6.93332 24.712 6.93332Z" fill="black"/>
<path d="M27.4571 6.93332H26.2018C26.1151 6.93332 26.0449 7.00357 26.0449 7.09023V8.34548C26.0449 8.43214 26.1151 8.50239 26.2018 8.50239H27.4571C27.5437 8.50239 27.614 8.43214 27.614 8.34548V7.09023C27.614 7.00357 27.5437 6.93332 27.4571 6.93332Z" fill="black"/>
<path d="M30.2032 6.93332H28.9479C28.8612 6.93332 28.791 7.00357 28.791 7.09023V8.34548C28.791 8.43214 28.8612 8.50239 28.9479 8.50239H30.2032C30.2898 8.50239 30.3601 8.43214 30.3601 8.34548V7.09023C30.3601 7.00357 30.2898 6.93332 30.2032 6.93332Z" fill="black"/>
<path d="M1.95312 10.6913H33.1297" stroke="black" stroke-width="1.56907" stroke-linecap="round" stroke-linejoin="round"/>
</g>
<defs>
<clipPath id="clip0_151_452">
<rect width="37.6577" height="37.6577" fill="white" transform="translate(0.47168 0.837891)"/>
</clipPath>
</defs>
</svg>
