<svg width="38" height="39" viewBox="0 0 38 39" fill="none" xmlns="http://www.w3.org/2000/svg">
<g clip-path="url(#clip0_151_492)">
<path d="M19.0006 36.142C28.0997 36.142 35.4759 28.7657 35.4759 19.6667C35.4759 10.5677 28.0997 3.19147 19.0006 3.19147C9.90161 3.19147 2.52539 10.5677 2.52539 19.6667C2.52539 28.7657 9.90161 36.142 19.0006 36.142Z" fill="white" stroke="black" stroke-width="1.56907"/>
<path d="M17.4303 36.142C26.5294 36.142 33.9056 28.7657 33.9056 19.6667C33.9056 10.5677 26.5294 3.19147 17.4303 3.19147C8.3313 3.19147 0.955078 10.5677 0.955078 19.6667C0.955078 28.7657 8.3313 36.142 17.4303 36.142Z" fill="white" stroke="black" stroke-width="1.56907"/>
<path fill-rule="evenodd" clip-rule="evenodd" d="M11.9879 25.2301V26.9623L12.0781 27.0001C12.602 27.2199 13.2723 27.4034 14.0854 27.5528C14.8618 27.6954 15.7115 27.77 16.6339 27.7771V29.9524H18.0155V27.7162C19.44 27.5849 20.5956 27.1693 21.4705 26.4596C22.3984 25.7035 22.8592 24.6627 22.8592 23.3552C22.8592 22.4769 22.6565 21.7516 22.2376 21.1923C21.8417 20.6421 21.2695 20.1835 20.5291 19.8133C19.8207 19.4591 18.9825 19.1216 18.0155 18.8005V12.762C18.5504 12.8006 19.1004 12.8868 19.664 13.0203C20.299 13.1669 20.9177 13.3622 21.5201 13.6064L21.6575 13.6621L22.2335 12.2071L22.105 12.1496C21.4697 11.8654 20.8014 11.6482 20.1003 11.4978C19.441 11.341 18.746 11.2506 18.0155 11.2263V9.46777H16.6339V11.232C15.2891 11.3333 14.1757 11.7334 13.3033 12.4409C12.3907 13.1645 11.9385 14.1814 11.9385 15.4718C11.9385 16.3341 12.133 17.0576 12.5333 17.6318C12.9275 18.1974 13.4828 18.6735 14.191 19.0613C14.8841 19.4321 15.6988 19.7625 16.6339 20.0534V26.2222C15.8219 26.2126 15.0248 26.1234 14.2422 25.9546C13.4248 25.7748 12.7429 25.5632 12.1944 25.3213L11.9879 25.2301ZM12.135 25.4566C12.6952 25.7037 13.3871 25.9179 14.2109 26.0991C15.0511 26.2804 15.9078 26.371 16.781 26.371V26.3702C16.7319 26.3702 16.6829 26.3699 16.6339 26.3693C15.8116 26.3597 15.0039 26.2702 14.2109 26.0991C13.4578 25.9334 12.8149 25.7394 12.2821 25.5187C12.2321 25.498 12.1831 25.4778 12.135 25.4566ZM14.2603 18.9324C13.5683 18.5535 13.0329 18.0922 12.654 17.5485C12.275 17.0048 12.0856 16.3128 12.0856 15.4726C12.0856 14.2205 12.5222 13.2485 13.3954 12.5565C14.2685 11.8481 15.3971 11.4526 16.781 11.3703V11.3695C15.3971 11.4519 14.2685 11.8473 13.3954 12.5557C12.5222 13.2477 12.0856 14.2205 12.0856 15.4726C12.0856 16.3128 12.275 17.0048 12.654 17.5485C13.0329 18.0922 13.5683 18.5535 14.2603 18.9324ZM16.781 9.61566H17.8684V11.3703C18.6427 11.3867 19.3759 11.4774 20.0678 11.6421C19.3759 11.4774 18.6427 11.386 17.8684 11.3695V9.61487H16.781V9.61566ZM17.8684 12.6059V18.9077C18.8734 19.2372 19.7383 19.5832 20.4632 19.9456C21.1881 20.3081 21.7401 20.7529 22.119 21.2801C22.5144 21.8073 22.7121 22.4993 22.7121 23.356C22.7121 23.3619 22.7121 23.3679 22.7121 23.3738M17.8684 12.6059V18.9077C18.8734 19.2372 19.7383 19.5832 20.4632 19.9456C21.1881 20.3081 21.7401 20.7529 22.119 21.2801C22.5144 21.8073 22.7121 22.4993 22.7121 23.356C22.7121 23.3619 22.7121 23.3679 22.7121 23.3738M13.6413 15.3483C13.6413 14.5472 13.9214 13.9514 14.4721 13.5383L14.4742 13.5368C15.0072 13.1222 15.7234 12.8694 16.6339 12.7887V18.3326C15.7137 18.0207 14.9869 17.6614 14.4482 17.2577C13.9169 16.8474 13.6413 16.2207 13.6413 15.3483ZM16.781 18.5362C15.7596 18.2067 14.9523 17.8203 14.3592 17.3755C13.7825 16.9307 13.4942 16.2552 13.4942 15.349C13.4942 15.3488 13.4942 15.3493 13.4942 15.349C13.4942 16.2552 13.7825 16.9307 14.3592 17.3755C14.9235 17.7988 15.6817 18.1691 16.6339 18.4879C16.6825 18.5041 16.7315 18.5202 16.781 18.5362ZM20.3739 21.668L20.3761 21.6697C20.8913 22.0485 21.1564 22.6179 21.1564 23.4047C21.1564 24.2742 20.8661 24.9197 20.2983 25.3647C19.7483 25.7959 18.9914 26.0649 18.0155 26.1603V20.5437C19.0807 20.9018 19.8636 21.2778 20.3739 21.668ZM20.3891 25.4805C19.8077 25.9362 19.0165 26.212 18.0155 26.3081C17.9669 26.3127 17.9179 26.3169 17.8684 26.3208C18.9393 26.2384 19.7795 25.9591 20.3891 25.4813C20.9976 25.0044 21.3024 24.3141 21.3035 23.4104C21.3022 24.3137 20.9974 25.0038 20.3891 25.4805Z" fill="black"/>
</g>
<defs>
<clipPath id="clip0_151_492">
<rect width="37.6577" height="37.6577" fill="white" transform="translate(0.170898 0.837891)"/>
</clipPath>
</defs>
</svg>
