<svg width="39" height="38" viewBox="0 0 39 38" fill="none" xmlns="http://www.w3.org/2000/svg">
<path d="M33.7227 8.00085H5.30345C4.43687 8.00085 3.73438 8.70335 3.73438 9.56993V32.7296C3.73438 33.5961 4.43687 34.2986 5.30345 34.2986H33.7227C34.5893 34.2986 35.2918 33.5961 35.2918 32.7296V9.56993C35.2918 8.70335 34.5893 8.00085 33.7227 8.00085Z" fill="black" stroke="black" stroke-width="1.56907"/>
<path d="M3.3916 9.56993C3.3916 8.70341 4.0941 8.00085 4.96067 8.00085H31.8897C32.7562 8.00085 33.4588 8.70341 33.4588 9.56993V32.7296C33.4588 33.5962 32.7562 34.2987 31.8897 34.2987H4.96066C4.09409 34.2987 3.3916 33.5962 3.3916 32.7296V9.56993Z" fill="white" stroke="black" stroke-width="1.56907"/>
<path d="M2.3418 9.56993C2.3418 8.70341 3.04429 8.00085 3.91087 8.00085H31.8918C32.7584 8.00085 33.4609 8.70341 33.4609 9.56993V21.1586C33.4609 22.0251 32.7584 22.7277 31.8918 22.7277H3.91087C3.04429 22.7277 2.3418 22.0251 2.3418 21.1586V9.56993Z" fill="white" stroke="black" stroke-width="1.56907"/>
<path d="M24.6468 8.00006V5.36149C24.6468 4.49492 23.9443 3.79242 23.0777 3.79242H14.1189C13.2524 3.79242 12.5498 4.49492 12.5498 5.36149V8.00006" stroke="black" stroke-width="1.56907"/>
<path d="M23.8519 8.00003V5.36146C23.8519 4.49489 23.1494 3.79239 22.2828 3.79239H13.324C12.4574 3.79239 11.7549 4.49489 11.7549 5.36146V8.00003" stroke="black" stroke-width="1.56907"/>
<path d="M20.2596 20.6231H14.7016C14.1183 20.6231 13.6455 21.096 13.6455 21.6792V23.7747C13.6455 24.3579 14.1183 24.8308 14.7016 24.8308H20.2596C20.8429 24.8308 21.3157 24.3579 21.3157 23.7747V21.6792C21.3157 21.096 20.8429 20.6231 20.2596 20.6231Z" fill="black"/>
</svg>
