<svg width="39" height="38" viewBox="0 0 39 38" fill="none" xmlns="http://www.w3.org/2000/svg">
<g clip-path="url(#clip0_151_464)">
<mask id="mask0_151_464" style="mask-type:luminance" maskUnits="userSpaceOnUse" x="0" y="0" width="39" height="38">
<path d="M38.1294 0H0.47168V37.6577H38.1294V0Z" fill="white"/>
</mask>
<g mask="url(#mask0_151_464)">
<path d="M16.0987 19.8334C15.3582 19.0929 15.3582 17.8923 16.0987 17.1518C16.8392 16.4113 18.0397 16.4113 18.7802 17.1518L29.1938 27.5654C29.9343 28.3059 29.9343 29.5065 29.1938 30.247C28.4533 30.9874 27.2528 30.9874 26.5123 30.247L16.0987 19.8334Z" fill="black" stroke="black" stroke-width="1.56907"/>
<path d="M5.37485 22.6101C9.81738 27.0526 17.0201 27.0526 21.4626 22.6101C25.9051 18.1676 26.414 9.57535 21.9715 5.13281C17.529 0.690294 9.81738 2.07985 5.37485 6.52236C0.93234 10.9648 0.932342 18.1676 5.37485 22.6101Z" fill="black" stroke="black" stroke-width="1.56907"/>
<path d="M28.4896 24.0123C27.0092 22.8927 24.9299 23.0364 23.6175 24.3488C22.1653 25.801 22.1653 28.1554 23.6175 29.6076L29.2444 35.2345C30.8538 36.8438 33.4631 36.8438 35.0725 35.2345C36.2799 34.027 36.6176 32.1999 35.9216 30.6406L35.7355 30.2237C35.4117 29.4985 34.9097 28.867 34.2762 28.3879L28.4896 24.0123Z" fill="black" stroke="black" stroke-width="1.56907"/>
<path d="M16.0987 17.6146C15.3582 16.8741 15.3582 15.6735 16.0987 14.933C16.8392 14.1925 18.0397 14.1925 18.7802 14.933L29.1938 25.3466C29.9343 26.0871 29.9343 27.2877 29.1938 28.0282C28.4533 28.7687 27.2528 28.7687 26.5123 28.0282L16.0987 17.6146Z" fill="black" stroke="black" stroke-width="1.56907"/>
<path d="M21.4648 20.3913C17.0223 24.8338 9.81953 24.8338 5.37702 20.3913C0.934501 15.9488 0.934501 8.74608 5.37702 4.30356C9.81953 -0.138949 17.0223 -0.138949 21.4648 4.30356C25.9073 8.74608 25.9073 15.9488 21.4648 20.3913Z" fill="white" stroke="black" stroke-width="1.56907"/>
<path d="M23.4468 22.3004L23.4468 22.3004C24.8051 20.9421 27.0074 20.9421 28.3657 22.3004L34.6171 28.5518C35.9754 29.9101 35.9754 32.1124 34.6171 33.4707L34.6171 33.4707C33.2588 34.829 31.0566 34.829 29.6983 33.4707L23.4468 27.2192C22.0885 25.8609 22.0885 23.6587 23.4468 22.3004Z" fill="white" stroke="black" stroke-width="1.56907"/>
</g>
</g>
<defs>
<clipPath id="clip0_151_464">
<rect width="37.6577" height="37.6577" fill="white" transform="translate(0.47168)"/>
</clipPath>
</defs>
</svg>
