<svg width="39" height="38" viewBox="0 0 39 38" fill="none" xmlns="http://www.w3.org/2000/svg">
<path d="M26.3251 5.18594C23.6939 5.17119 21.1926 6.38427 19.4977 8.49708C17.8133 6.36983 15.305 5.15329 12.6702 5.18594C7.73071 5.18594 3.72656 9.38934 3.72656 14.5746C3.72656 23.4604 17.8781 32.6709 18.477 33.0063C18.7187 33.1757 19.6552 32.6413 19.8969 32.4718C20.4959 32.1365 35.2688 23.5861 35.2688 14.5746C35.2688 9.38934 31.2646 5.18594 26.3251 5.18594Z" fill="black" stroke="black" stroke-width="1.56907"/>
<path d="M24.7578 4.40143C22.1265 4.38667 19.6252 5.59976 17.9303 7.71258C16.2459 5.58532 13.7376 4.36878 11.1028 4.40143C6.16333 4.40143 2.15918 8.60482 2.15918 13.79C2.15918 22.6759 16.9321 31.352 17.531 31.6873C17.7727 31.8568 18.0878 31.8568 18.3295 31.6873C18.9285 31.352 33.7014 22.8015 33.7014 13.79C33.7014 8.60482 29.6972 4.40143 24.7578 4.40143Z" fill="white" stroke="black" stroke-width="1.56907"/>
<path d="M4.89941 19.5501H9.69931L11.6707 16.6645L14.4993 22.4358L18.6134 13.0575L21.3563 19.5501H28.2133" stroke="black" stroke-width="1.56907" stroke-linecap="round" stroke-linejoin="round"/>
</svg>
