<svg width="38" height="38" viewBox="0 0 38 38" fill="none" xmlns="http://www.w3.org/2000/svg">
<g clip-path="url(#clip0_151_524)">
<mask id="mask0_151_524" style="mask-type:luminance" maskUnits="userSpaceOnUse" x="0" y="0" width="38" height="38">
<path d="M37.9292 0H0.271484V37.6577H37.9292V0Z" fill="white"/>
</mask>
<g mask="url(#mask0_151_524)">
<path d="M21.8421 3.8134L21.8421 3.81339C18.4689 1.86587 14.1556 3.02161 12.2081 6.3948L2.80357 22.6839C0.856061 26.0571 2.0118 30.3704 5.38499 32.3179L5.38502 32.3179C8.75821 34.2654 13.0715 33.1097 15.019 29.7365L24.4235 13.4474C26.371 10.0742 25.2153 5.76091 21.8421 3.8134Z" fill="white" stroke="black" stroke-width="1.56907"/>
<path d="M34.4754 25.7648C34.4754 31.3286 29.9651 35.8389 24.4013 35.8389C18.8375 35.8389 14.3271 31.3286 14.3271 25.7648C14.3271 20.201 18.8375 15.6907 24.4013 15.6907C29.9651 15.6907 34.4754 20.201 34.4754 25.7648Z" fill="black" stroke="black" stroke-width="1.56907"/>
<path d="M32.9081 24.1958C32.9081 29.7595 28.3977 34.2698 22.8339 34.2698C17.2701 34.2698 12.7598 29.7595 12.7598 24.1958C12.7598 18.6319 17.2701 14.1216 22.8339 14.1216C28.3977 14.1216 32.9081 18.6319 32.9081 24.1958Z" fill="white" stroke="black" stroke-width="1.56907"/>
<path d="M16.2702 16.4084L28.0508 32.3843L29.5392 31.2867L17.7586 15.3108L16.2702 16.4084Z" fill="black"/>
<path fill-rule="evenodd" clip-rule="evenodd" d="M4.2041 32.4778C4.82123 33.303 5.61223 34.0194 6.56117 34.5672C10.238 36.69 14.92 35.495 17.14 31.9108C16.569 31.4307 16.052 30.8886 15.5994 30.2945C13.3913 33.9147 8.68478 35.1294 4.99208 32.9975C4.71592 32.838 4.45312 32.6644 4.2041 32.4778ZM24.8934 14.2016C25.6332 14.295 26.348 14.4686 27.0288 14.7135C28.5411 11.3713 27.5158 7.41439 24.5908 5.22357C26.4114 7.65813 26.7186 11.0403 25.1023 13.8398L24.8934 14.2016Z" fill="white"/>
<mask id="mask1_151_524" style="mask-type:luminance" maskUnits="userSpaceOnUse" x="4" y="5" width="24" height="31">
<path fill-rule="evenodd" clip-rule="evenodd" d="M4.20508 32.4778C4.8222 33.303 5.61321 34.0194 6.56214 34.5672C10.239 36.69 14.9209 35.495 17.1409 31.9108C16.5699 31.4307 16.0529 30.8886 15.6004 30.2945C13.3923 33.9147 8.68576 35.1294 4.99306 32.9975C4.71689 32.838 4.4541 32.6644 4.20508 32.4778ZM24.8944 14.2016C25.6342 14.295 26.3489 14.4686 27.0298 14.7135C28.542 11.3713 27.5167 7.41439 24.5917 5.22357C26.4123 7.65813 26.7196 11.0403 25.1033 13.8398L24.8944 14.2016Z" fill="white"/>
</mask>
<g mask="url(#mask1_151_524)">
<path d="M4.20579 32.4778L5.14642 31.222L2.94922 33.4175L4.20579 32.4778ZM17.1416 31.9108L18.4756 32.737L19.1903 31.5831L18.1513 30.7097L17.1416 31.9108ZM15.6011 30.2945L16.8494 29.3438L15.4576 27.5167L14.2616 29.4774L15.6011 30.2945ZM24.8951 14.2016L23.5362 13.4171L22.3554 15.4623L24.6985 15.7583L24.8951 14.2016ZM27.0305 14.7136L26.4993 16.19L27.8627 16.6804L28.4601 15.3604L27.0305 14.7136ZM24.5925 5.22361L25.5331 3.96775L23.3359 6.1633L24.5925 5.22361ZM7.34739 33.2085C6.58593 32.7688 5.95451 32.1963 5.46236 31.5382L2.94922 33.4175C3.69132 34.4099 4.6419 35.2701 5.77832 35.9262L7.34739 33.2085ZM15.8078 31.0846C14.0327 33.9503 10.2879 34.9061 7.34739 33.2085L5.77832 35.9262C10.1915 38.4741 15.8106 37.0396 18.4756 32.737L15.8078 31.0846ZM14.3529 31.2453C14.8756 31.9314 15.4726 32.5576 16.132 33.1119L18.1513 30.7097C17.6686 30.304 17.2317 29.8457 16.8494 29.3438L14.3529 31.2453ZM4.20923 34.3564C8.64143 36.9153 14.29 35.4573 16.9407 31.1116L14.2616 29.4774C12.4959 32.3723 8.7315 33.3437 5.7783 31.6387L4.20923 34.3564ZM3.26515 33.7337C3.564 33.9575 3.87891 34.1657 4.20923 34.3564L5.7783 31.6387C5.55629 31.5105 5.34561 31.3712 5.14642 31.222L3.26515 33.7337ZM24.6985 15.7583C25.3229 15.8371 25.9256 15.9836 26.4993 16.19L27.5616 13.2371C26.7738 12.9537 25.9469 12.7529 25.0917 12.6448L24.6985 15.7583ZM28.4601 15.3604C30.2763 11.3464 29.0459 6.59878 25.5331 3.96775L23.6518 6.47948C25.9891 8.23011 26.8092 11.3963 25.601 14.0667L28.4601 15.3604ZM23.3359 6.1633C24.7941 8.11321 25.0366 10.8184 23.7451 13.0553L26.4628 14.6244C28.404 11.2623 28.0321 7.20312 25.849 4.28393L23.3359 6.1633ZM23.7451 13.0553L23.5362 13.4171L26.2539 14.9861L26.4628 14.6244L23.7451 13.0553Z" fill="black"/>
</g>
<path d="M13.6761 18.8878L6.88184 14.9651L6.09812 16.3226L12.8924 20.2453L13.6761 18.8878Z" fill="black"/>
</g>
</g>
<defs>
<clipPath id="clip0_151_524">
<rect width="37.6577" height="37.6577" fill="white" transform="translate(0.271484)"/>
</clipPath>
</defs>
</svg>
