<svg width="25" height="25" viewBox="0 0 25 25" fill="none" xmlns="http://www.w3.org/2000/svg">
<path d="M22.7708 19.1298C22.7708 19.4898 22.6908 19.8598 22.5208 20.2198C22.3508 20.5798 22.1308 20.9198 21.8408 21.2398C21.3508 21.7798 20.8108 22.1698 20.2008 22.4198C19.6008 22.6698 18.9508 22.7998 18.2508 22.7998C17.2308 22.7998 16.1408 22.5598 14.9908 22.0698C13.8408 21.5798 12.6908 20.9198 11.5508 20.0898C10.4008 19.2498 9.31078 18.3198 8.27078 17.2898C7.24078 16.2498 6.31078 15.1598 5.48078 14.0198C4.66078 12.8798 4.00078 11.7398 3.52078 10.6098C3.04078 9.46981 2.80078 8.3798 2.80078 7.3398C2.80078 6.6598 2.92078 6.0098 3.16078 5.4098C3.40078 4.7998 3.78078 4.2398 4.31078 3.7398C4.95078 3.1098 5.65078 2.7998 6.39078 2.7998C6.67078 2.7998 6.95078 2.8598 7.20078 2.9798C7.46078 3.0998 7.69078 3.2798 7.87078 3.5398L10.1908 6.8098C10.3708 7.0598 10.5008 7.2898 10.5908 7.5098C10.6808 7.7198 10.7308 7.9298 10.7308 8.1198C10.7308 8.3598 10.6608 8.5998 10.5208 8.8298C10.3908 9.0598 10.2008 9.2998 9.96078 9.5398L9.20078 10.3298C9.09078 10.4398 9.04078 10.5698 9.04078 10.7298C9.04078 10.8098 9.05078 10.8798 9.07078 10.9598C9.10078 11.0398 9.13078 11.0998 9.15078 11.1598C9.33078 11.4898 9.64078 11.9198 10.0808 12.4398C10.5308 12.9598 11.0108 13.4898 11.5308 14.0198C12.0708 14.5498 12.5908 15.0398 13.1208 15.4898C13.6408 15.9298 14.0708 16.2298 14.4108 16.4098C14.4608 16.4298 14.5208 16.4598 14.5908 16.4898C14.6708 16.5198 14.7508 16.5298 14.8408 16.5298C15.0108 16.5298 15.1408 16.4698 15.2508 16.3598L16.0108 15.6098C16.2608 15.3598 16.5008 15.1698 16.7308 15.0498C16.9608 14.9098 17.1908 14.8398 17.4408 14.8398C17.6308 14.8398 17.8308 14.8798 18.0508 14.9698C18.2708 15.0598 18.5008 15.1898 18.7508 15.3598L22.0608 17.7098C22.3208 17.8898 22.5008 18.0998 22.6108 18.3498C22.7108 18.5998 22.7708 18.8498 22.7708 19.1298Z" stroke="#59258A" stroke-miterlimit="10"/>
</svg>
