<svg width="48" height="48" viewBox="0 0 48 48" fill="none" xmlns="http://www.w3.org/2000/svg">
<g clip-path="url(#clip0_151_561)">
<mask id="mask0_151_561" style="mask-type:luminance" maskUnits="userSpaceOnUse" x="0" y="0" width="48" height="48">
<path d="M47.5706 0.944092H0.592773V47.922H47.5706V0.944092Z" fill="white"/>
</mask>
<g mask="url(#mask0_151_561)">
<path d="M34.5037 35.7847C33.2407 35.7847 32.0085 35.4536 30.9072 34.8298L26.4251 32.2652C24.9695 31.4412 23.1905 31.4412 21.7427 32.2652L17.2605 34.8298C13.7873 36.8167 9.35902 35.6076 7.37976 32.1343C6.75596 31.0407 6.4248 29.8008 6.4248 28.5378V20.3128C6.4248 16.3159 9.66707 13.0736 13.664 13.0736H34.5037C38.5007 13.0736 41.7429 16.3159 41.7429 20.3128V28.5378C41.7429 32.5348 38.5007 35.777 34.5037 35.777V35.7847Z" fill="#DAB3FF"/>
<path d="M4.17034 20.1433C4.17034 20.1433 4.14724 20.1433 4.13184 20.1433C4.20885 20.1433 4.29356 20.1433 4.37058 20.1587C4.30897 20.151 4.23965 20.1356 4.17034 20.1356V20.1433Z" fill="#9948E8"/>
<path d="M4.17034 28.7226C4.23965 28.7226 4.30126 28.7149 4.37058 28.6995C4.29356 28.7072 4.20885 28.7149 4.13184 28.7149C4.14724 28.7149 4.15494 28.7149 4.17034 28.7149V28.7226Z" fill="#9948E8"/>
<path d="M2.9065 27.4595V21.4063C2.9065 20.7209 3.45329 20.1741 4.131 20.151C4.1079 20.151 4.0925 20.151 4.06939 20.151C2.28269 20.151 0.827148 22.0686 0.827148 24.4406C0.827148 26.8126 2.27499 28.7302 4.06939 28.7302C4.0925 28.7302 4.1079 28.7302 4.131 28.7302C3.45329 28.7071 2.9065 28.1526 2.9065 27.4749V27.4595Z" fill="#9948E8"/>
<path d="M4.43392 28.6918C5.00382 28.5685 5.42739 28.068 5.42739 27.4596V21.4064C5.42739 20.798 5.00382 20.2974 4.43392 20.1741C4.42622 20.1741 4.41852 20.1741 4.41082 20.1741C4.39542 20.1741 4.38001 20.1741 4.36461 20.1741C4.2876 20.1664 4.20289 20.1588 4.12587 20.1588C3.44816 20.1819 2.90137 20.7364 2.90137 21.4141V27.4673C2.90137 28.1527 3.44816 28.6995 4.12587 28.7226C4.20289 28.7226 4.2876 28.7226 4.36461 28.7072C4.38001 28.7072 4.39542 28.7072 4.41082 28.7072C4.41852 28.7072 4.42622 28.7072 4.43392 28.7072V28.6918Z" fill="#9948E8"/>
<path d="M44 20.1433C44 20.1433 44.0231 20.1433 44.0385 20.1433C43.9615 20.1433 43.8768 20.1433 43.7998 20.1587C43.8614 20.151 43.9307 20.1356 44 20.1356V20.1433Z" fill="#9948E8"/>
<path d="M44 28.7226C43.9307 28.7226 43.8691 28.7149 43.7998 28.6995C43.8768 28.7072 43.9615 28.7149 44.0385 28.7149C44.0231 28.7149 44.0154 28.7149 44 28.7149V28.7226Z" fill="#9948E8"/>
<path d="M45.2626 27.4595V21.4063C45.2626 20.7209 44.7158 20.1741 44.0381 20.151C44.0612 20.151 44.0766 20.151 44.0997 20.151C45.8864 20.151 47.3419 22.0686 47.3419 24.4406C47.3419 26.8126 45.8941 28.7302 44.0997 28.7302C44.0766 28.7302 44.0612 28.7302 44.0381 28.7302C44.7158 28.7071 45.2626 28.1526 45.2626 27.4749V27.4595Z" fill="#9948E8"/>
<path d="M43.7386 28.6918C43.1687 28.5685 42.7451 28.068 42.7451 27.4596V21.4064C42.7451 20.798 43.1687 20.2974 43.7386 20.1741C43.7463 20.1741 43.754 20.1741 43.7617 20.1741C43.7771 20.1741 43.7925 20.1741 43.8079 20.1741C43.8849 20.1664 43.9696 20.1588 44.0466 20.1588C44.7244 20.1819 45.2711 20.7364 45.2711 21.4141V27.4673C45.2711 28.1527 44.7244 28.6995 44.0466 28.7226C43.9696 28.7226 43.8849 28.7226 43.8079 28.7072C43.7925 28.7072 43.7771 28.7072 43.7617 28.7072C43.754 28.7072 43.7463 28.7072 43.7386 28.7072V28.6918Z" fill="#9948E8"/>
<path d="M11.3232 17.2399H15.8439" stroke="white" stroke-width="1.54026" stroke-miterlimit="10" stroke-linecap="round"/>
</g>
</g>
<defs>
<clipPath id="clip0_151_561">
<rect width="46.9779" height="46.9779" fill="white" transform="translate(0.59668 0.944092)"/>
</clipPath>
</defs>
</svg>
