<svg width="48" height="48" viewBox="0 0 48 48" fill="none" xmlns="http://www.w3.org/2000/svg">
<g clip-path="url(#clip0_151_618)">
<mask id="mask0_151_618" style="mask-type:luminance" maskUnits="userSpaceOnUse" x="0" y="1" width="47" height="47">
<path d="M0.465115 1.58014H46.6729V47.7879H0.465115V1.58014Z" fill="white"/>
</mask>
<g mask="url(#mask0_151_618)">
<path d="M12.7393 36.2607L22.2155 30.8456V42.2351L12.7393 47.6977V36.2607Z" fill="#DAB3FF"/>
<path d="M10.0323 47.6977L1.21426 42.6567C0.755605 42.4269 0.46582 41.9587 0.46582 41.4458V30.846L10.0323 36.2606V47.6977Z" fill="#DAB3FF"/>
<path d="M24.1193 1.60653L33.5133 6.51103L23.5697 12.1597L13.626 6.51103L23.0201 1.60653C23.3698 1.45106 23.7696 1.45106 24.1193 1.60653Z" fill="#9948E8"/>
<path d="M1.33301 28.2221L11.3873 23.2401L21.3515 28.2221L11.3873 33.9167L1.33301 28.2221Z" fill="#9948E8"/>
<path d="M45.9248 42.6567L37.1064 47.6977V36.2607L46.6729 30.8456V41.4458C46.6729 41.9587 46.3834 42.4268 45.9248 42.6567Z" fill="#DAB3FF"/>
<path d="M34.3991 47.6977L24.9229 42.2643V30.846L34.3991 36.2606V47.6977Z" fill="#DAB3FF"/>
<path d="M45.8085 28.2221L35.7542 33.9167L25.79 28.2221L35.7542 23.2401L45.8085 28.2221Z" fill="#9948E8"/>
<path d="M22.2155 25.6288L12.7393 20.8897V9.09583L22.2155 14.5104V25.6288Z" fill="#DAB3FF"/>
<path d="M34.3991 20.8896L24.9229 25.6288V14.5105L34.3991 9.09546V20.8896Z" fill="#DAB3FF"/>
</g>
</g>
<defs>
<clipPath id="clip0_151_618">
<rect width="46.9779" height="46.9779" fill="white" transform="translate(0.30957 0.810059)"/>
</clipPath>
</defs>
</svg>
