<svg width="48" height="48" viewBox="0 0 48 48" fill="none" xmlns="http://www.w3.org/2000/svg">
<g clip-path="url(#clip0_151_637)">
<path d="M23.1374 25.8771C22.9834 25.8771 22.837 25.9387 22.7369 26.0388C22.6368 26.1389 22.5752 26.2775 22.5752 26.4393C22.5752 26.601 22.6368 26.7319 22.7369 26.8397C22.837 26.9399 22.9834 27.0092 23.1374 27.0092C23.2914 27.0092 23.4377 26.9476 23.5379 26.8474L23.5533 26.832C23.6457 26.7319 23.7073 26.5933 23.7073 26.447C23.7073 26.3006 23.6457 26.1543 23.5456 26.0465L23.5225 26.0157C23.4223 25.931 23.2914 25.8771 23.1528 25.8771H23.1374Z" fill="#9948E8"/>
<path d="M28.8995 47.2406C27.5595 47.1404 26.2657 46.6553 25.1875 45.8235C24.9873 45.6926 24.8486 45.4616 24.8486 45.2074V32.0536C24.8486 31.6531 25.1721 31.322 25.5803 31.322H31.2022V16.5201H25.5803C25.1798 16.5201 24.8486 16.1889 24.8486 15.7885V2.64238C24.8486 2.40364 24.9719 2.1649 25.1798 2.03398C26.258 1.20224 27.5595 0.709355 28.8918 0.609238C30.2087 0.509122 31.5642 0.794069 32.7887 1.49489L32.8195 1.51029C34.0517 2.21881 34.9758 3.26619 35.5534 4.45989C36.0155 5.42255 36.2542 6.48533 36.2388 7.56351C37.3093 7.5481 38.3798 7.78684 39.3425 8.24892C40.5208 8.81882 41.5527 9.72757 42.2689 10.9367C42.2921 10.9752 42.3152 11.006 42.3306 11.0445C43.016 12.2613 43.2932 13.609 43.1931 14.9105C43.1161 15.9733 42.7849 17.013 42.2304 17.9371C43.17 18.4608 43.9709 19.2002 44.5716 20.0858C45.3187 21.1871 45.7576 22.5117 45.7576 23.9364C45.7576 25.3612 45.3187 26.6858 44.5716 27.7871C43.9709 28.6727 43.17 29.4044 42.2304 29.928C42.7849 30.8522 43.1084 31.8919 43.1931 32.9547C43.2932 34.2639 43.016 35.6193 42.3152 36.8438L42.2921 36.8823C41.5835 38.1145 40.5362 39.0387 39.3425 39.6163C38.3798 40.0784 37.317 40.3171 36.2388 40.3094C36.2542 41.3799 36.0155 42.4426 35.5534 43.4053C34.9835 44.5836 34.0748 45.6156 32.8657 46.3241C32.8272 46.3472 32.7887 46.3703 32.7502 46.3934C31.5334 47.0788 30.1933 47.3484 28.8918 47.256L28.8995 47.2406Z" fill="#DAB3FF"/>
<path d="M22.407 45.8158C21.3288 46.6475 20.035 47.1404 18.6949 47.2405C17.3934 47.3329 16.0534 47.0634 14.8366 46.378C14.7981 46.3549 14.7596 46.3395 14.7211 46.3087C13.5197 45.6001 12.6032 44.5682 12.0333 43.3899C11.5713 42.4272 11.3325 41.3644 11.3479 40.2939C10.2774 40.3093 9.21466 40.0706 8.2443 39.6008C7.05058 39.0232 6.0032 38.0991 5.29468 36.8669L5.27158 36.8284C4.57846 35.6039 4.30122 34.2561 4.39363 32.9469C4.47064 31.8764 4.8018 30.8368 5.35629 29.9126C4.41673 29.3889 3.6158 28.6496 3.0151 27.7716C2.26808 26.6704 1.8291 25.3457 1.8291 23.9287C1.8291 22.504 2.26808 21.1793 3.0151 20.0781C3.6158 19.1924 4.42444 18.4531 5.35629 17.9294C4.8018 17.0052 4.47835 15.9656 4.39363 14.9028C4.29351 13.6013 4.57076 12.2535 5.25618 11.0367C5.27158 10.9982 5.29468 10.9597 5.31779 10.9289C6.0263 9.71983 7.05828 8.81107 8.2443 8.24118C9.20696 7.77912 10.2697 7.54038 11.3479 7.55578C11.3325 6.4853 11.5713 5.42252 12.0333 4.45216C12.6109 3.25846 13.5351 2.21108 14.7673 1.50257L14.7981 1.48716C16.0226 0.786345 17.378 0.509098 18.6949 0.601514C20.0581 0.70163 21.375 1.20992 22.4686 2.07246C22.6534 2.21879 22.7458 2.42672 22.7458 2.64236V15.7961C22.7458 16.1966 22.4147 16.5278 22.0142 16.5278H16.4V31.3296H22.0142C22.4147 31.3296 22.7458 31.6531 22.7458 32.0613V45.2151C22.7458 45.4769 22.6072 45.7003 22.407 45.8312V45.8158Z" fill="#DAB3FF"/>
<path d="M29.0523 18.6686H18.54V20.6093H22.46C22.5678 20.3321 22.7295 20.0856 22.9375 19.8854L22.9914 19.8315C23.3764 19.4695 23.8924 19.2539 24.4546 19.2539C25.0476 19.2539 25.5867 19.4926 25.9718 19.8854C26.3645 20.2782 26.6033 20.8095 26.6033 21.4025C26.6033 21.9955 26.3645 22.5346 25.9718 22.9197C25.579 23.3125 25.0476 23.5512 24.4546 23.5512C23.8616 23.5512 23.3225 23.3125 22.9375 22.9197C22.7295 22.7118 22.5678 22.4653 22.46 22.1958H18.54V29.1808H29.0523V27.2401H25.1323C25.0245 27.502 24.8705 27.7484 24.6703 27.9486L24.6549 27.964C24.2621 28.3568 23.7307 28.5956 23.1377 28.5956C22.5447 28.5956 22.0056 28.3568 21.6206 27.964C21.2355 27.579 20.989 27.0399 20.989 26.4469C20.989 25.8539 21.2278 25.3148 21.6206 24.9297C22.0133 24.5447 22.5447 24.2982 23.1377 24.2982C23.7307 24.2982 24.2159 24.5216 24.601 24.8758L24.6549 24.922C24.8551 25.13 25.0245 25.3764 25.1323 25.646H29.0446V18.6609L29.0523 18.6686Z" fill="#9948E8"/>
<path d="M24.8544 21.0022C24.7543 20.9021 24.6079 20.8405 24.4539 20.8405C24.3076 20.8405 24.1767 20.8944 24.0842 20.9791L24.0611 21.0099C23.961 21.11 23.8994 21.2563 23.8994 21.4103C23.8994 21.5644 23.961 21.703 24.0611 21.8108C24.1613 21.9109 24.2999 21.9725 24.4616 21.9725C24.6233 21.9725 24.7543 21.9109 24.8621 21.8108C24.9622 21.7107 25.0238 21.5721 25.0238 21.4103C25.0238 21.2486 24.9622 21.1177 24.8621 21.0099" fill="#9948E8"/>
</g>
<defs>
<clipPath id="clip0_151_637">
<rect width="46.9779" height="46.9779" fill="white" transform="translate(0.30957 0.432007)"/>
</clipPath>
</defs>
</svg>
