<svg width="48" height="48" viewBox="0 0 48 48" fill="none" xmlns="http://www.w3.org/2000/svg">
<g clip-path="url(#clip0_151_547)">
<mask id="mask0_151_547" style="mask-type:luminance" maskUnits="userSpaceOnUse" x="0" y="0" width="48" height="48">
<path d="M47.3685 0.322113H0.390625V47.3H47.3685V0.322113Z" fill="white"/>
</mask>
<g mask="url(#mask0_151_547)">
<path d="M23.8812 47.1844C36.79 47.1844 47.2546 36.7197 47.2546 23.811C47.2546 10.9022 36.79 0.437561 23.8812 0.437561C10.9725 0.437561 0.507812 10.9022 0.507812 23.811C0.507812 36.7197 10.9725 47.1844 23.8812 47.1844Z" fill="#DAB3FF"/>
<path d="M23.8808 36.8801C31.1284 36.8801 37.0038 31.0047 37.0038 23.7571C37.0038 16.5095 31.1284 10.6341 23.8808 10.6341C16.6331 10.6341 10.7578 16.5095 10.7578 23.7571C10.7578 31.0047 16.6331 36.8801 23.8808 36.8801Z" fill="white"/>
<path d="M18.8158 17.3497H28.9738C29.7439 17.3497 30.3677 17.9735 30.3677 18.7437V28.9017C30.3677 29.6718 29.7439 30.2956 28.9738 30.2956H18.8158C18.0457 30.2956 17.4219 29.6718 17.4219 28.9017V18.7437C17.4219 17.9735 18.0457 17.3497 18.8158 17.3497Z" fill="#9948E8"/>
<path fill-rule="evenodd" clip-rule="evenodd" d="M34.7691 36.3256C28.2538 42.0091 18.35 41.7473 12.1428 35.54C5.66596 29.0632 5.66596 18.5587 12.1428 12.0819C18.6195 5.60511 29.1241 5.60511 35.6009 12.0819C41.8081 18.2891 42.07 28.1853 36.3864 34.7083M22.0774 14.0919C22.0774 13.4604 21.5614 12.9444 20.9299 12.9444C20.2984 12.9444 19.7824 13.4604 19.7824 14.0919V15.0623H18.8121C16.7789 15.0623 15.1309 16.7104 15.1309 18.7435V19.7139H14.1605C13.529 19.7139 13.013 20.2299 13.013 20.8614C13.013 21.4929 13.529 22.0089 14.1605 22.0089H15.1309V25.6439H14.1605C13.529 25.6439 13.013 26.1598 13.013 26.7914C13.013 27.4229 13.529 27.9388 14.1605 27.9388H15.1309V28.9092C15.1309 30.9424 16.7789 32.5904 18.8121 32.5904H19.7824V33.5608C19.7824 34.1923 20.2984 34.7083 20.9299 34.7083C21.5614 34.7083 22.0774 34.1923 22.0774 33.5608V32.5904H25.7124V33.5608C25.7124 34.1923 26.2284 34.7083 26.8599 34.7083C27.4914 34.7083 28.0074 34.1923 28.0074 33.5608V32.5904H28.9778C31.0109 32.5904 32.659 30.9424 32.659 28.9092V27.9388H33.6293C34.2609 27.9388 34.7768 27.4229 34.7768 26.7914C34.7768 26.1598 34.2609 25.6439 33.6293 25.6439H32.659V22.0089H33.6293C34.2609 22.0089 34.7768 21.4929 34.7768 20.8614C34.7768 20.2299 34.2609 19.7139 33.6293 19.7139H32.659V18.7435C32.659 16.7104 31.0109 15.0623 28.9778 15.0623H28.0074V14.0919C28.0074 13.4604 27.4914 12.9444 26.8599 12.9444C26.2284 12.9444 25.7124 13.4604 25.7124 14.0919V15.0623H22.0774V14.0919Z" fill="#DAB3FF"/>
</g>
</g>
<defs>
<clipPath id="clip0_151_547">
<rect width="46.9779" height="46.9779" fill="white" transform="translate(0.390625 0.322083)"/>
</clipPath>
</defs>
</svg>
