<svg width="48" height="48" viewBox="0 0 48 48" fill="none" xmlns="http://www.w3.org/2000/svg">
<g clip-path="url(#clip0_151_591)">
<mask id="mask0_151_591" style="mask-type:luminance" maskUnits="userSpaceOnUse" x="0" y="0" width="48" height="48">
<path d="M47.7913 0.566162H0.813477V47.544H47.7913V0.566162Z" fill="white"/>
</mask>
<g mask="url(#mask0_151_591)">
<path d="M24.3006 29.7539C31.7093 29.7539 38.186 33.7586 41.6824 39.7271C45.433 35.5838 47.7125 30.0851 47.7125 24.055C47.7125 11.1476 37.2465 0.68158 24.3314 0.68158C11.4164 0.68158 0.958008 11.1476 0.958008 24.055C0.958008 30.062 3.22219 35.5376 6.94961 39.6809C10.4537 33.7432 16.9074 29.7539 24.3006 29.7539Z" fill="#DAB3FF"/>
<path d="M24.3319 47.4284C31.2091 47.4284 37.401 44.4557 41.6752 39.7194C38.1788 33.7586 31.7097 29.7462 24.2934 29.7462C16.877 29.7462 10.4465 33.7355 6.94238 39.6732C11.2243 44.4326 17.4238 47.4284 24.3242 47.4284H24.3319Z" fill="#9948E8"/>
<path d="M24.3019 27.8365C27.8832 27.8365 30.7864 24.9333 30.7864 21.352C30.7864 17.7707 27.8832 14.8676 24.3019 14.8676C20.7206 14.8676 17.8174 17.7707 17.8174 21.352C17.8174 24.9333 20.7206 27.8365 24.3019 27.8365Z" fill="white"/>
</g>
</g>
<defs>
<clipPath id="clip0_151_591">
<rect width="46.9779" height="46.9779" fill="white" transform="translate(0.80957 0.566101)"/>
</clipPath>
</defs>
</svg>
