<svg width="48" height="48" viewBox="0 0 48 48" fill="none" xmlns="http://www.w3.org/2000/svg">
<g clip-path="url(#clip0_151_604)">
<path d="M24.3009 8.70569C14.451 8.70569 6.3877 16.7689 6.3877 26.6189V36.6768C6.3877 39.1797 8.43624 41.2359 10.9469 41.2359H37.6549C40.1579 41.2359 42.2064 39.1874 42.2064 36.6845V26.6266C42.2064 16.7766 34.1432 8.71339 24.2932 8.71339L24.3009 8.70569Z" fill="#DAB3FF"/>
<path d="M17.0895 27.312C18.7823 27.312 20.1546 25.9397 20.1546 24.2469C20.1546 22.5541 18.7823 21.1818 17.0895 21.1818C15.3967 21.1818 14.0244 22.5541 14.0244 24.2469C14.0244 25.9397 15.3967 27.312 17.0895 27.312Z" fill="white"/>
<path d="M24.2962 36.3688C22.1168 36.3688 20.1837 35.3369 18.9515 33.735C18.5973 33.2729 18.9284 32.6106 19.5137 32.6106H29.0941C29.6717 32.6106 30.0029 33.2806 29.6563 33.735C28.4241 35.3369 26.4834 36.3688 24.3116 36.3688H24.2962Z" fill="white"/>
<path d="M32.2223 27.312C33.9152 27.312 35.2875 25.9397 35.2875 24.2469C35.2875 22.5541 33.9152 21.1818 32.2223 21.1818C30.5295 21.1818 29.1572 22.5541 29.1572 24.2469C29.1572 25.9397 30.5295 27.312 32.2223 27.312Z" fill="white"/>
<path d="M4.04532 23.0146H4.22245C4.78464 23.0146 5.22362 23.5075 5.14661 24.062C5.03109 24.9014 4.97718 25.7485 4.97718 26.6111V30.7698C4.97718 31.2858 4.56131 31.7016 4.04532 31.7016C2.45886 31.7016 1.16504 30.4078 1.16504 28.8214V25.9026C1.16504 24.3161 2.45886 23.0223 4.04532 23.0223V23.0146Z" fill="#DAB3FF"/>
<path d="M6.50025 10.1843C6.50025 11.4473 5.64541 12.51 4.47482 12.8181V21.5976H3.10399C3.10399 21.5976 3.08088 21.5976 3.06548 21.5976V12.8104C1.90258 12.5023 1.04004 11.4396 1.04004 10.1766C1.04004 8.6671 2.26454 7.45032 3.7663 7.45032C5.26805 7.45032 6.49255 8.6748 6.49255 10.1766L6.50025 10.1843Z" fill="#9948E8"/>
<path d="M44.1202 12.8258C42.9573 12.5178 42.0947 11.455 42.0947 10.192C42.0947 8.68254 43.3192 7.4657 44.821 7.4657C46.3227 7.4657 47.5472 8.69024 47.5472 10.192C47.5472 11.455 46.6924 12.5178 45.5218 12.8258V21.613C45.5218 21.613 45.4987 21.613 45.4833 21.613H44.1125V12.8335L44.1202 12.8258Z" fill="#9948E8"/>
<path d="M47.4327 25.9026V28.8214C47.4327 30.4078 46.1389 31.7016 44.5525 31.7016C44.0365 31.7016 43.6206 31.2858 43.6206 30.7698V26.6188C43.6206 25.7562 43.559 24.9014 43.4512 24.0697C43.3742 23.5152 43.8131 23.0223 44.3753 23.0223H44.5525C46.1389 23.0223 47.4327 24.3238 47.4327 25.9026Z" fill="#DAB3FF"/>
</g>
<defs>
<clipPath id="clip0_151_604">
<rect width="46.9779" height="46.9779" fill="white" transform="translate(0.80957 0.188049)"/>
</clipPath>
</defs>
</svg>
