<svg width="47" height="48" viewBox="0 0 47 48" fill="none" xmlns="http://www.w3.org/2000/svg">
<path d="M39.9828 34.7219C38.0575 34.6218 36.317 35.854 35.7625 37.6946H34.0374C33.2134 37.6946 32.5511 37.0323 32.5511 36.2082V28.6378H36.7868C40.4526 28.6378 44.2878 26.1195 44.4419 22.1919C44.465 18.0794 41.1534 14.7216 37.0409 14.6985C36.7483 14.6985 36.4556 14.7139 36.163 14.7447C36.4941 8.84554 29.5707 5.5032 24.5802 5.14894C19.1046 4.75617 11.8346 8.32957 12.5123 14.7447C8.51535 14.3135 3.77906 16.8087 3.02434 21.0136C2.2388 25.3802 6.59003 28.6378 10.6101 28.6378H14.7072V36.2082C14.7072 37.0323 14.0449 37.6946 13.2208 37.6946H11.4958C10.9413 35.854 9.20077 34.6218 7.27545 34.7219C1.33006 34.7219 1.33006 43.6477 7.27545 43.6477C9.20077 43.7478 10.9413 42.5156 11.4958 40.675H13.2208C15.6853 40.675 17.6799 38.6803 17.6799 36.2159V28.6455H22.1389V34.9683C17.7492 36.3314 18.2344 43.6554 23.6253 43.6554C29.0162 43.6554 29.5091 36.3391 25.1116 34.9683V28.6455H29.5707V36.2159C29.5707 38.6803 31.5653 40.675 34.0297 40.675H35.7548C36.3093 42.5156 38.0498 43.7478 39.9751 43.6477C45.9205 43.6477 45.9205 34.7219 39.9751 34.7219H39.9828Z" fill="#DAB3FF"/>
<path d="M7.19879 43.7479C9.75503 43.7479 11.8273 41.6757 11.8273 39.1194C11.8273 36.5632 9.75503 34.491 7.19879 34.491C4.64255 34.491 2.57031 36.5632 2.57031 39.1194C2.57031 41.6757 4.64255 43.7479 7.19879 43.7479Z" fill="#9948E8"/>
<path d="M23.6832 43.7479C26.2394 43.7479 28.3116 41.6757 28.3116 39.1194C28.3116 36.5632 26.2394 34.491 23.6832 34.491C21.1269 34.491 19.0547 36.5632 19.0547 39.1194C19.0547 41.6757 21.1269 43.7479 23.6832 43.7479Z" fill="#9948E8"/>
<path d="M39.8238 43.7479C42.3801 43.7479 44.4523 41.6757 44.4523 39.1194C44.4523 36.5632 42.3801 34.491 39.8238 34.491C37.2676 34.491 35.1953 36.5632 35.1953 39.1194C35.1953 41.6757 37.2676 43.7479 39.8238 43.7479Z" fill="#9948E8"/>
</svg>
